<?xml version="1.0" encoding="UTF-8" standalone="no"?>
<svg
   xmlns:dc="http://purl.org/dc/elements/1.1/"
   xmlns:cc="http://creativecommons.org/ns#"
   xmlns:rdf="http://www.w3.org/1999/02/22-rdf-syntax-ns#"
   xmlns:svg="http://www.w3.org/2000/svg"
   xmlns="http://www.w3.org/2000/svg"
   xmlns:sodipodi="http://sodipodi.sourceforge.net/DTD/sodipodi-0.dtd"
   xmlns:inkscape="http://www.inkscape.org/namespaces/inkscape"
   width="180px"
   height="380px"
   viewBox="0 0 180 380"
   version="1.1"
   id="svg226"
   sodipodi:docname="svg_render_tmp.svg"
   inkscape:version="0.92.2 5c3e80d, 2017-08-06">
  <metadata
     id="metadata230">
    <rdf:RDF>
      <cc:Work
         rdf:about="">
        <dc:format>image/svg+xml</dc:format>
        <dc:type
           rdf:resource="http://purl.org/dc/dcmitype/StillImage" />
      </cc:Work>
    </rdf:RDF>
  </metadata>
  <sodipodi:namedview
     pagecolor="#ffffff"
     bordercolor="#666666"
     borderopacity="1"
     objecttolerance="10"
     gridtolerance="10"
     guidetolerance="10"
     inkscape:pageopacity="0"
     inkscape:pageshadow="2"
     inkscape:window-width="582"
     inkscape:window-height="449"
     id="namedview228"
     showgrid="false"
     inkscape:zoom="0.62105263"
     inkscape:cx="90"
     inkscape:cy="190"
     inkscape:window-x="0"
     inkscape:window-y="0"
     inkscape:window-maximized="0"
     inkscape:current-layer="svg226" />
  <!-- Generator: Sketch 53.1 (72631) - https://sketchapp.com -->
  <title
     id="title2">Flow-src</title>
  <desc
     id="desc4">Created with Sketch.</desc>
  <defs
     id="defs11">
    <linearGradient
       x1="200.74773"
       y1="0.65196648"
       x2="200.74773"
       y2="144.46546"
       id="linearGradient-1"
       gradientTransform="scale(0.65196648,1.5338212)"
       gradientUnits="userSpaceOnUse">
      <stop
         stop-color="#4D4E4F"
         stop-opacity="0.597683566"
         offset="0%"
         id="stop6" />
      <stop
         stop-color="#000000"
         stop-opacity="0.431008732"
         offset="100%"
         id="stop8" />
    </linearGradient>
  </defs>
  <g
     style="fill:none;fill-rule:evenodd;stroke:none;stroke-width:1"
     id="Flow-src">
    <path
       style="fill:#c1c1c1"
       inkscape:connector-curvature="0"
       id="Rectangle"
       d="m 5,0 h 155 c 11.04569,0 20,8.954305 20,20 v 355 c 0,2.76142 -2.23858,5 -5,5 H 20 C 8.954305,380 0,371.0457 0,360 V 5 C 0,2.2385763 2.2385763,0 5,0 Z" />
    <path
       style="fill:#010101"
       inkscape:connector-curvature="0"
       id="path14"
       d="m 7,2 h 151 c 11.04569,0 20,8.954305 20,20 v 350 c 0,2.76142 -2.23858,5 -5,5 H 22 C 10.954305,377 2,368.0457 2,357 V 7 C 2,4.2385763 4.2385763,2 7,2 Z" />
    <path
       style="opacity:0.3;fill:#111111"
       d="M 9,30 H 169 V 150 H 9 Z"
       id="Rectangle-6" />
    <g
       aria-label="Flow"
       style="font-weight:normal;font-size:16px;font-family:InputSans-Regular, 'Input Sans';fill:#f0f0f0"
       id="Flow">
      <path
         d="M 19.590909,22 V 10.363636 h 7.563637 v 1.309091 h -6.109091 v 4.509091 h 5.090909 v 1.309091 H 21.045455 V 22 Z"
         style=""
         id="path354" />
      <path
         d="m 33.6475,22.072727 q -1.469091,0 -2.312727,-0.989091 -0.829091,-0.989091 -0.829091,-2.341818 v -8.378182 h 1.454546 v 8.392728 q 0,0.770909 0.421818,1.367272 0.436363,0.596364 1.309091,0.596364 0.218182,0 0.509091,-0.07273 0.290909,-0.07273 0.509091,-0.174546 l 0.290909,1.265455 q -0.276364,0.145454 -0.625455,0.247273 -0.349091,0.08727 -0.727273,0.08727 z"
         style=""
         id="path356" />
      <path
         d="m 40.696023,22.145455 q -1.629091,0 -2.632727,-0.8 -1.003637,-0.814546 -1.003637,-2.501819 v -2.356363 q 0,-1.701818 1.003637,-2.530909 1.018182,-0.829091 2.647273,-0.829091 1.62909,0 2.618181,0.829091 1.003637,0.829091 1.003637,2.530909 v 2.356363 q 0,1.687273 -1.003637,2.501819 -1.003636,0.8 -2.632727,0.8 z m 0,-1.309091 q 1.090909,0 1.629091,-0.465455 0.552727,-0.465454 0.552727,-1.527273 v -2.356363 q 0,-1.047273 -0.552727,-1.541818 -0.538182,-0.509091 -1.629091,-0.509091 -1.090909,0 -1.643636,0.509091 -0.538182,0.494545 -0.538182,1.541818 v 2.356363 q 0,1.061819 0.538182,1.527273 0.552727,0.465455 1.643636,0.465455 z"
         style=""
         id="path358" />
      <path
         d="M 54.272614,22 52.323523,16.094545 50.461705,22 h -1.658182 l -2.443636,-8.727273 h 1.469091 l 1.832727,7.316364 1.789091,-5.861818 h 1.716363 l 1.876364,5.716363 1.803636,-7.170909 H 58.31625 L 55.872614,22 Z"
         style=""
         id="path360" />
    </g>
    <g
       transform="translate(2,1.5)"
       id="screw_top">
      <path
         style="fill:#d8d8d8"
         d="M 11,5.5 A 5.5,5.5 0 0 1 5.5,11 5.5,5.5 0 0 1 0,5.5 5.5,5.5 0 0 1 5.5,0 5.5,5.5 0 0 1 11,5.5 Z"
         id="Oval-2" />
      <path
         style="fill:#000000;fill-rule:nonzero;stroke:#000000;stroke-width:0.5"
         inkscape:connector-curvature="0"
         transform="rotate(-21.258598,5.5,5.5)"
         id="path7856"
         d="M 6.7624199,7.1655333 C 6.5014038,7.3859257 6.0066664,6.6680272 5.6762133,6.7211472 5.3457604,6.7742674 5.0759456,7.6150676 4.7646003,7.4866819 4.4532551,7.3582963 4.7949391,6.5471321 4.5861264,6.2716416 4.3773136,5.996151 3.5525097,6.1699266 3.5021805,5.8211486 3.4518513,5.4723706 4.2882729,5.3791049 4.4099131,5.0504942 4.5315531,4.7218835 3.9765641,4.0548591 4.2375801,3.8344667 4.4985962,3.6140743 4.9933336,4.3319728 5.3237867,4.2788528 5.6542396,4.2257326 5.9240544,3.3849324 6.2353996,3.5133181 c 0.3113453,0.1283856 -0.030339,0.9395498 0.178474,1.2150403 0.2088128,0.2754906 1.0336167,0.101715 1.0839459,0.450493 0.050329,0.348778 -0.7860924,0.4420437 -0.9077326,0.7706544 -0.12164,0.3286107 0.433349,0.9956351 0.172333,1.2160275 z" />
    </g>
    <g
       transform="translate(167,366.5)"
       id="screw_bot">
      <path
         style="fill:#d8d8d8"
         d="M 11,5.5 A 5.5,5.5 0 0 1 5.5,11 5.5,5.5 0 0 1 0,5.5 5.5,5.5 0 0 1 5.5,0 5.5,5.5 0 0 1 11,5.5 Z"
         id="circle23" />
      <path
         style="fill:#000000;fill-rule:nonzero;stroke:#000000;stroke-width:0.5"
         inkscape:connector-curvature="0"
         transform="rotate(-21.258598,5.5,5.5)"
         id="path25"
         d="M 6.7624199,7.1655333 C 6.5014038,7.3859257 6.0066664,6.6680272 5.6762133,6.7211472 5.3457604,6.7742674 5.0759456,7.6150676 4.7646003,7.4866819 4.4532551,7.3582963 4.7949391,6.5471321 4.5861264,6.2716416 4.3773136,5.996151 3.5525097,6.1699266 3.5021805,5.8211486 3.4518513,5.4723706 4.2882729,5.3791049 4.4099131,5.0504942 4.5315531,4.7218835 3.9765641,4.0548591 4.2375801,3.8344667 4.4985962,3.6140743 4.9933336,4.3319728 5.3237867,4.2788528 5.6542396,4.2257326 5.9240544,3.3849324 6.2353996,3.5133181 c 0.3113453,0.1283856 -0.030339,0.9395498 0.178474,1.2150403 0.2088128,0.2754906 1.0336167,0.101715 1.0839459,0.450493 0.050329,0.348778 -0.7860924,0.4420437 -0.9077326,0.7706544 -0.12164,0.3286107 0.433349,0.9956351 0.172333,1.2160275 z" />
    </g>
    <g
       transform="translate(29.5,162.5)"
       id="marks">
      <g
         aria-label="up"
         style="font-weight:normal;font-size:10px;font-family:InputSans-Regular, 'Input Sans';fill:#f0f0f0"
         id="up">
        <path
           d="m 56.809091,11.090909 q -0.8,0 -1.281818,-0.509091 -0.481818,-0.509091 -0.481818,-1.3545453 V 5.5454545 h 0.909091 v 3.5 q 0,0.5818182 0.272727,0.8818182 0.272727,0.3000003 0.8,0.3000003 0.418182,0 0.827273,-0.2363639 0.418182,-0.2454546 0.827273,-0.7181818 V 5.5454545 h 0.90909 V 11 h -0.90909 v -0.909091 h -0.272728 q -0.2,0.454546 -0.636363,0.727273 -0.427273,0.272727 -0.963637,0.272727 z"
           style=""
           id="path365" />
        <path
           d="m 63.603551,10.290909 q 0.736364,0 1.09091,-0.3181817 0.354545,-0.3272728 0.354545,-0.9818182 V 7.5181818 q 0,-0.7 -0.3,-0.9454545 -0.290909,-0.2545455 -0.790909,-0.2545455 -0.463636,0 -0.854546,0.2363637 -0.390909,0.2363636 -0.781818,0.7181818 v 2.6727272 q 0.290909,0.1727275 0.618182,0.2636365 0.327273,0.08182 0.663636,0.08182 z m 0.0091,0.8 q -0.318181,0 -0.654545,-0.07273 -0.336364,-0.06364 -0.636364,-0.181818 v 1.981818 H 61.412642 V 5.5454545 h 0.909091 v 0.909091 h 0.272728 q 0.236363,-0.4727273 0.654545,-0.7363637 0.418182,-0.2636363 0.936364,-0.2636363 0.845454,0 1.309091,0.5454545 0.463636,0.5454545 0.463636,1.5272727 v 1.4818182 q 0,0.9818182 -0.618182,1.5363641 -0.618182,0.545454 -1.727273,0.545454 z"
           style=""
           id="path367" />
      </g>
      <g
         aria-label="down"
         style="font-weight:normal;font-size:10px;font-family:InputSans-Regular, 'Input Sans';fill:#f0f0f0"
         id="down">
        <path
           d="m 50.272727,100.22727 q 0.463636,0 0.854545,-0.236361 0.390909,-0.236364 0.781819,-0.718182 V 96.6 q -0.29091,-0.172727 -0.618182,-0.254545 -0.327273,-0.09091 -0.663637,-0.09091 -0.709091,0 -1.081818,0.336364 -0.363636,0.327273 -0.363636,0.963636 v 1.463637 q 0,0.709091 0.290909,0.963636 0.3,0.245452 0.8,0.245452 z m 1.363636,-0.13636 q -0.236363,0.47273 -0.645454,0.73636 -0.409091,0.26364 -0.945455,0.26364 -0.8,0 -1.290909,-0.53636 -0.481818,-0.54546 -0.481818,-1.536368 v -1.481818 q 0,-0.954546 0.627273,-1.518182 0.636363,-0.563637 1.718181,-0.563637 0.363637,0 0.69091,0.07273 0.327272,0.06364 0.6,0.181818 v -1.981818 h 0.90909 V 101 h -0.90909 v -0.90909 z"
           style=""
           id="path370" />
        <path
           d="m 56.912642,101.09091 q -1.018182,0 -1.645455,-0.5 -0.627273,-0.50909 -0.627273,-1.563637 v -1.472728 q 0,-1.063636 0.627273,-1.581818 0.636364,-0.518182 1.654546,-0.518182 1.018181,0 1.636363,0.518182 0.627273,0.518182 0.627273,1.581818 v 1.472728 q 0,1.054547 -0.627273,1.563637 -0.627272,0.5 -1.645454,0.5 z m 0,-0.81818 q 0.681818,0 1.018182,-0.290912 0.345454,-0.290909 0.345454,-0.954545 v -1.472728 q 0,-0.654545 -0.345454,-0.963636 -0.336364,-0.318182 -1.018182,-0.318182 -0.681818,0 -1.027273,0.318182 Q 55.549005,96.9 55.549005,97.554545 v 1.472728 q 0,0.663636 0.336364,0.954545 0.345455,0.290912 1.027273,0.290912 z"
           style=""
           id="path372" />
        <path
           d="M 65.398011,101 64.179829,97.309091 63.016193,101 h -1.036364 l -1.527273,-5.454545 h 0.918182 l 1.145455,4.572725 1.118182,-3.663635 h 1.072727 l 1.172727,3.572725 1.127273,-4.481815 h 0.918182 L 66.398011,101 Z"
           style=""
           id="path374" />
        <path
           d="m 69.190696,101 v -5.454545 h 0.909091 v 0.90909 h 0.272727 q 0.2,-0.454545 0.627273,-0.727272 0.436363,-0.272728 0.972727,-0.272728 0.809091,0 1.281818,0.509091 0.481818,0.5 0.481818,1.354546 V 101 h -0.909091 v -3.5 q 0,-0.6 -0.309091,-0.890909 -0.3,-0.290909 -0.763636,-0.290909 -0.527273,0 -0.909091,0.272727 -0.381818,0.263636 -0.745454,0.681818 V 101 Z"
           style=""
           id="path376" />
      </g>
      <g
         aria-label="left"
         style="font-weight:normal;font-size:10px;font-family:InputSans-Regular, 'Input Sans';fill:#f0f0f0"
         id="left">
        <path
           d="m 4.0090909,57.545455 q -0.9181818,0 -1.4454545,-0.618182 -0.5181818,-0.618182 -0.5181818,-1.463637 v -5.236363 h 0.9090909 v 5.245454 q 0,0.481818 0.2636363,0.854546 Q 3.4909091,56.7 4.0363636,56.7 q 0.1363637,0 0.3181819,-0.04546 0.1818181,-0.04545 0.3181818,-0.10909 l 0.1818182,0.790909 q -0.1727273,0.09091 -0.3909091,0.154545 -0.2181818,0.05455 -0.4545455,0.05455 z"
           style=""
           id="path379" />
        <path
           d="m 10.705327,56.3 q -0.245455,0.681818 -0.7818185,0.990909 -0.5272727,0.3 -1.5,0.3 -1.0818182,0 -1.6818182,-0.518182 -0.6,-0.527272 -0.6,-1.554545 v -1.463637 q 0,-1.054545 0.6272728,-1.572727 0.6363636,-0.527273 1.6545454,-0.527273 1.0272728,0 1.6454545,0.536364 0.618182,0.527273 0.618182,1.627273 v 0.836363 H 7.0507813 v 0.572728 q 0,0.681818 0.3363636,0.990909 0.3454545,0.3 1.0272727,0.3 0.6545455,0 0.9545455,-0.181818 0.3,-0.181819 0.4545454,-0.590909 z M 7.0507813,54.054545 v 0.218182 H 9.778054 v -0.136363 q 0,-0.736364 -0.3454546,-1.072728 -0.3363636,-0.336363 -1.0181818,-0.336363 -0.6818182,0 -1.0272727,0.327272 -0.3363636,0.318182 -0.3363636,1 z"
           style=""
           id="path381" />
        <path
           d="M 13.417969,57.5 V 52.863636 H 12.32706 v -0.818181 h 1.090909 v -0.363637 q 0,-0.736363 0.445454,-1.136363 0.445455,-0.409091 1.109091,-0.409091 0.263637,0 0.645455,0.07273 0.381818,0.07273 0.609091,0.163636 l -0.181819,0.763637 q -0.190909,-0.07273 -0.427272,-0.127273 -0.227273,-0.05455 -0.463637,-0.05455 -0.381818,0 -0.609091,0.172728 -0.218181,0.163636 -0.218181,0.545454 v 0.372728 h 1.818181 v 0.818181 H 14.32706 V 57.5 Z"
           style=""
           id="path383" />
        <path
           d="m 20.676278,57.581818 q -0.9,0 -1.354545,-0.472727 -0.454545,-0.472727 -0.454545,-1.4 v -2.845455 h -1.09091 v -0.818181 h 1.09091 v -1.818182 h 0.90909 v 1.818182 h 2 v 0.818181 h -2 v 2.854546 q 0,0.536363 0.263637,0.790909 0.263636,0.245454 0.690909,0.245454 0.2,0 0.445454,-0.04545 0.245455,-0.04546 0.5,-0.136364 l 0.181819,0.8 q -0.309091,0.109091 -0.609091,0.154546 -0.290909,0.05454 -0.572728,0.05454 z"
           style=""
           id="path385" />
      </g>
      <g
         aria-label="right"
         style="font-weight:normal;font-size:10px;font-family:InputSans-Regular, 'Input Sans';fill:#f0f0f0"
         id="right">
        <path
           d="m 99.909091,57.5 v -5.454545 h 0.909089 v 0.90909 h 0.27273 q 0.2,-0.518181 0.6,-0.754545 0.4,-0.245455 0.87273,-0.245455 0.6,0 0.97272,0.409091 0.37273,0.4 0.37273,1.136364 v 0.818182 h -0.86364 v -0.690909 q 0,-0.363637 -0.20909,-0.581818 -0.20909,-0.227273 -0.54545,-0.227273 -0.37273,0 -0.78182,0.281818 -0.40909,0.272727 -0.69091,0.672727 V 57.5 Z"
           style=""
           id="path388" />
        <path
           d="m 106.2674,57.5 v -5.454545 h 0.90909 V 57.5 Z m 0.45455,-6.454545 q -0.34546,0 -0.56364,-0.109091 -0.20909,-0.109091 -0.20909,-0.409091 v -0.06364 q 0,-0.309091 0.20909,-0.418181 0.21818,-0.118182 0.56364,-0.118182 0.34545,0 0.55454,0.118182 0.21818,0.10909 0.21818,0.418181 v 0.06364 q 0,0.3 -0.21818,0.409091 -0.21818,0.109091 -0.55454,0.109091 z"
           style=""
           id="path390" />
        <path
           d="m 115.36364,57.936364 q 0,0.736363 -0.54546,1.1 -0.53636,0.372727 -1.31818,0.372727 h -1.70909 q -0.81818,0 -1.35455,-0.327273 -0.52727,-0.327273 -0.52727,-1.009091 0,-0.436363 0.22727,-0.690909 0.23637,-0.263636 0.68182,-0.3 v -0.190909 q -0.31818,-0.05454 -0.52727,-0.263636 -0.2,-0.209091 -0.2,-0.645455 0,-0.390909 0.24545,-0.7 0.24546,-0.318182 0.82728,-0.363636 v -0.172727 q -0.44546,-0.145455 -0.6,-0.436364 -0.15455,-0.3 -0.15455,-0.572727 v -0.245455 q 0,-0.627273 0.53636,-1.036364 0.53637,-0.40909 1.5091,-0.40909 h 2.68181 v 0.818181 l -1.40909,-0.209091 v 0.163637 q 0.36364,0.1 0.54546,0.381818 0.19091,0.281818 0.19091,0.563636 V 54 q 0,0.627273 -0.48182,1.018182 Q 113.5,55.4 112.41818,55.4 h -1.1 q -0.24545,0 -0.37273,0.127273 -0.12727,0.118182 -0.12727,0.409091 0,0.281818 0.17273,0.427272 Q 111.17273,56.5 111.52727,56.5 h 2.06364 q 0.76364,0 1.26364,0.336364 0.50909,0.336363 0.50909,1.1 z m -2.90909,-3.227273 q 0.55454,0 0.84545,-0.2 0.29091,-0.2 0.29091,-0.627273 v -0.290909 q 0,-0.427273 -0.29091,-0.618182 -0.29091,-0.2 -0.84545,-0.2 -0.55455,0 -0.84546,0.2 -0.29091,0.190909 -0.29091,0.618182 v 0.290909 q 0,0.427273 0.29091,0.627273 0.29091,0.2 0.84546,0.2 z m -0.68182,3.972727 h 1.84545 q 0.40909,0 0.66364,-0.154545 0.25454,-0.154546 0.25454,-0.536364 0,-0.363636 -0.23636,-0.518182 -0.22727,-0.154545 -0.59091,-0.154545 h -2.89091 v 0.618182 q 0,0.372727 0.24546,0.554545 0.24545,0.190909 0.70909,0.190909 z"
           style=""
           id="path392" />
        <path
           d="m 117.17472,57.5 v -7.272727 h 0.90909 v 2.727272 h 0.27272 q 0.20909,-0.490909 0.61819,-0.745454 0.40909,-0.254546 0.98181,-0.254546 0.74546,0 1.25455,0.49091 0.50909,0.481818 0.50909,1.363636 V 57.5 h -0.90909 V 54 q 0,-0.6 -0.30909,-0.890909 -0.3,-0.290909 -0.76364,-0.290909 -0.52727,0 -0.90909,0.272727 -0.38182,0.263636 -0.74545,0.681818 V 57.5 Z"
           style=""
           id="path394" />
        <path
           d="m 126.26009,57.581818 q -0.9,0 -1.35455,-0.472727 -0.45455,-0.472727 -0.45455,-1.4 v -2.845455 h -1.0909 v -0.818181 h 1.0909 v -1.818182 h 0.9091 v 1.818182 h 2 v 0.818181 h -2 v 2.854546 q 0,0.536363 0.26363,0.790909 0.26364,0.245454 0.69091,0.245454 0.2,0 0.44546,-0.04545 0.24545,-0.04546 0.5,-0.136364 l 0.18181,0.8 q -0.30909,0.109091 -0.60909,0.154546 -0.29091,0.05454 -0.57272,0.05454 z"
           style=""
           id="path396" />
      </g>
      <g
         aria-label="X"
         style="font-weight:normal;font-size:10px;font-family:InputSans-Regular, 'Input Sans';fill:#f0f0f0"
         id="X">
        <path
           d="M 72.945458,178.5 71.009094,175.51818 69.06364,178.5 h -1.063637 l 2.536364,-3.70909 -2.309091,-3.56364 h 1.045455 l 1.836363,2.83637 1.854546,-2.83637 h 1.054545 l -2.436363,3.55455 2.409091,3.71818 z"
           style=""
           id="path399" />
      </g>
      <g
         aria-label="angle"
         transform="rotate(-45,98.495689,99.995689)"
         style="font-weight:normal;font-size:10px;font-family:InputSans-Regular, 'Input Sans';fill:#f0f0f0"
         id="angle">
        <path
           d="m 85.47751,103.30478 q 0.5,0 0.927273,-0.16364 0.427273,-0.17272 0.727273,-0.59091 v -0.87272 h -1.909091 q -0.390909,0 -0.627273,0.18182 -0.236363,0.17272 -0.236363,0.61818 0,0.39091 0.263636,0.60909 0.272727,0.21818 0.854545,0.21818 z m -0.118181,0.78182 q -0.727273,0 -1.3,-0.36364 -0.563637,-0.37273 -0.563637,-1.19091 0,-0.71818 0.436364,-1.12727 0.436363,-0.40909 1.172727,-0.40909 h 2.027273 v -0.78182 q 0,-0.436362 -0.318182,-0.70909 -0.309091,-0.281818 -0.945455,-0.281818 -0.636363,0 -0.972727,0.2 -0.336363,0.2 -0.509091,0.809088 l -0.772727,-0.21818 q 0.145455,-0.745453 0.672727,-1.154544 0.536364,-0.409091 1.563637,-0.409091 0.936363,0 1.563636,0.409091 0.627273,0.4 0.627273,1.245454 v 2.43636 q 0,0.49091 0.272727,0.61819 0.272727,0.11818 0.818182,0.0273 v 0.83636 q -0.563637,0.0818 -1.063637,-0.0727 -0.490909,-0.16363 -0.536363,-0.86363 h -0.181818 q -0.254546,0.42727 -0.8,0.71818 -0.536364,0.28182 -1.190909,0.28182 z"
           style=""
           id="path402" />
        <path
           d="m 90.761317,103.99569 v -5.454546 h 0.909091 v 0.909091 h 0.272727 q 0.2,-0.454546 0.627273,-0.727273 0.436364,-0.272727 0.972727,-0.272727 0.809091,0 1.281819,0.509091 0.481818,0.5 0.481818,1.354544 v 3.68182 h -0.909091 v -3.5 q 0,-0.600001 -0.309091,-0.89091 -0.3,-0.290909 -0.763636,-0.290909 -0.527273,0 -0.909091,0.272727 -0.381819,0.263637 -0.745455,0.681822 v 3.72727 z"
           style=""
           id="path404" />
        <path
           d="m 102.58305,104.43205 q 0,0.73637 -0.54545,1.1 -0.53637,0.37273 -1.31819,0.37273 h -1.709087 q -0.818182,0 -1.354546,-0.32727 -0.527272,-0.32728 -0.527272,-1.00909 0,-0.43637 0.227272,-0.69091 0.236364,-0.26364 0.681819,-0.3 v -0.19091 q -0.318182,-0.0546 -0.527273,-0.26364 -0.2,-0.20909 -0.2,-0.64545 0,-0.39091 0.245454,-0.7 0.245455,-0.31818 0.827273,-0.36364 v -0.17273 q -0.445454,-0.14545 -0.6,-0.43636 -0.154545,-0.3 -0.154545,-0.57273 v -0.245452 q 0,-0.627272 0.536363,-1.036363 0.536364,-0.409091 1.509091,-0.409091 h 2.681821 v 0.818182 l -1.40909,-0.209091 v 0.163636 q 0.36363,0.1 0.54545,0.381818 0.19091,0.281819 0.19091,0.563641 v 0.23636 q 0,0.62727 -0.48182,1.01818 -0.48182,0.38182 -1.563634,0.38182 h -1.1 q -0.245455,0 -0.372728,0.12727 -0.127272,0.11818 -0.127272,0.40909 0,0.28182 0.172727,0.42728 0.181818,0.13636 0.536363,0.13636 h 2.063634 q 0.76364,0 1.26364,0.33636 0.50909,0.33637 0.50909,1.1 z m -2.909091,-3.22727 q 0.554541,0 0.845451,-0.2 0.29091,-0.2 0.29091,-0.62727 v -0.29091 q 0,-0.427274 -0.29091,-0.618183 -0.29091,-0.2 -0.845451,-0.2 -0.554545,0 -0.845454,0.2 -0.290909,0.190909 -0.290909,0.618183 v 0.29091 q 0,0.42727 0.290909,0.62727 0.290909,0.2 0.845454,0.2 z m -0.681818,3.97273 h 1.845459 q 0.40909,0 0.66363,-0.15455 0.25455,-0.15454 0.25455,-0.53636 0,-0.36364 -0.23637,-0.51818 -0.22727,-0.15455 -0.59091,-0.15455 h -2.890904 v 0.61818 q 0,0.37273 0.245454,0.55455 0.245455,0.19091 0.709091,0.19091 z"
           style=""
           id="path406" />
        <path
           d="m 106.81231,104.04114 q -0.91818,0 -1.44545,-0.61818 -0.51818,-0.61818 -0.51818,-1.46363 v -5.236368 h 0.90909 v 5.245458 q 0,0.48181 0.26363,0.85454 0.27273,0.37273 0.81818,0.37273 0.13637,0 0.31819,-0.0455 0.18181,-0.0454 0.31818,-0.10909 l 0.18182,0.79091 q -0.17273,0.0909 -0.39091,0.15455 -0.21818,0.0545 -0.45455,0.0545 z"
           style=""
           id="path408" />
        <path
           d="m 113.50855,102.79569 q -0.24546,0.68182 -0.78182,0.99091 -0.52727,0.3 -1.5,0.3 -1.08182,0 -1.68182,-0.51818 -0.6,-0.52728 -0.6,-1.55455 v -1.46364 q 0,-1.054541 0.62727,-1.572722 0.63637,-0.527273 1.65455,-0.527273 1.02727,0 1.64545,0.536363 0.61819,0.527273 0.61819,1.627272 v 0.83636 H 109.854 v 0.57273 q 0,0.68182 0.33637,0.99091 0.34545,0.3 1.02727,0.3 0.65454,0 0.95454,-0.18182 0.3,-0.18182 0.45455,-0.59091 z m -3.65455,-2.24546 v 0.21819 h 2.72727 v -0.13637 q 0,-0.736361 -0.34545,-1.072724 -0.33636,-0.336364 -1.01818,-0.336364 -0.68182,0 -1.02727,0.327273 -0.33637,0.318182 -0.33637,0.999995 z"
           style=""
           id="path410" />
      </g>
      <g
         aria-label="Y"
         style="font-weight:normal;font-size:10px;font-family:InputSans-Regular, 'Input Sans';fill:#f0f0f0"
         id="Y">
        <path
           d="m 27.954546,133 h -0.909091 v -2.72727 l -2.6,-4.54546 h 1.018182 l 2.090909,3.69091 1.990909,-3.69091 h 1 l -2.590909,4.54546 z"
           style=""
           id="path413" />
      </g>
      <path
         style="stroke:#c1c1c1;stroke-linecap:round"
         inkscape:connector-curvature="0"
         id="Line-2"
         d="M 47.5,151.5 47,127.5" />
      <path
         style="stroke:#c1c1c1;stroke-linecap:round"
         inkscape:connector-curvature="0"
         id="Line-3"
         d="M 47.5,151.5 H 71" />
      <path
         style="stroke:#979797;stroke-linecap:square"
         inkscape:connector-curvature="0"
         id="Line-7"
         d="M 107,151.5 H 71.324521" />
      <path
         style="stroke:#979797;stroke-linecap:square"
         inkscape:connector-curvature="0"
         id="Line-4"
         d="M 107,15 60.5,27" />
      <path
         style="stroke:#979797;stroke-linecap:square"
         inkscape:connector-curvature="0"
         id="Line-5"
         d="M 60.5,27 V 75.5" />
      <path
         style="stroke:#979797;stroke-linecap:square"
         inkscape:connector-curvature="0"
         id="Line-6"
         d="m 84.5,51.25 h -48" />
    </g>
    <g
       style="fill:#efefef"
       transform="translate(116,154)"
       id="knobguide">
      <path
         style="fill-rule:nonzero;stroke:#f0f0f0;stroke-width:1.5"
         inkscape:connector-curvature="0"
         transform="rotate(120,11,39.5)"
         id="Shape"
         d="m 9,39 h 4" />
      <path
         style="fill-rule:nonzero;stroke:#f0f0f0;stroke-width:0.30000001"
         inkscape:connector-curvature="0"
         transform="rotate(135,7.5,35.5)"
         id="path57"
         d="M 6,35 H 9" />
      <path
         style="fill-rule:nonzero;stroke:#f0f0f0;stroke-width:0.30000001"
         inkscape:connector-curvature="0"
         transform="rotate(150,4.5,32.5)"
         id="path59"
         d="M 3,32 H 6" />
      <path
         style="fill-rule:nonzero;stroke:#f0f0f0;stroke-width:0.30000001"
         inkscape:connector-curvature="0"
         transform="rotate(165,3.5,27.5)"
         id="path61"
         d="M 2,27 H 5" />
      <path
         style="fill-rule:nonzero;stroke:#f0f0f0;stroke-width:0.30000001"
         inkscape:connector-curvature="0"
         transform="rotate(-180,2.5,23.5)"
         id="path63"
         d="M 1,23 H 4" />
      <path
         style="fill-rule:nonzero;stroke:#f0f0f0;stroke-width:1.5"
         inkscape:connector-curvature="0"
         transform="rotate(-165,3,18.5)"
         id="path65"
         d="M 1,18 H 5" />
      <path
         style="fill-rule:nonzero;stroke:#f0f0f0;stroke-width:0.30000001"
         inkscape:connector-curvature="0"
         transform="rotate(-150,5.5,14.5)"
         id="path67"
         d="M 4,14 H 7" />
      <path
         style="fill-rule:nonzero;stroke:#f0f0f0;stroke-width:0.30000001"
         inkscape:connector-curvature="0"
         transform="rotate(-135,8.5,10.5)"
         id="path69"
         d="m 7,10 h 3" />
      <path
         style="fill-rule:nonzero;stroke:#f0f0f0;stroke-width:0.30000001"
         inkscape:connector-curvature="0"
         transform="rotate(-120,12.5,7.5)"
         id="path71"
         d="m 11,7 h 3" />
      <path
         style="fill-rule:nonzero;stroke:#f0f0f0;stroke-width:0.30000001"
         inkscape:connector-curvature="0"
         transform="rotate(-105,16.5,6.5)"
         id="path73"
         d="m 15,6 h 3" />
      <g
         aria-label="0"
         style="font-weight:normal;font-size:8.125px;font-family:Helvetica"
         id="0">
        <path
           d="m 20.938507,2.3188477 q 1.102905,0 1.594849,0.9085083 0.380859,0.7022094 0.380859,1.9241333 0,1.1584472 -0.345154,1.9161987 -0.499878,1.0870361 -1.634521,1.0870361 -1.02356,0 -1.523438,-0.8886719 -0.416565,-0.7418823 -0.416565,-1.9915771 0,-0.9680176 0.249939,-1.6622925 0.46814,-1.2933349 1.694031,-1.2933349 z m -0.0079,5.1852417 q 0.555419,0 0.884704,-0.4919434 0.329285,-0.4919434 0.329285,-1.8328857 0,-0.9680176 -0.238037,-1.5908814 -0.238037,-0.626831 -0.924378,-0.626831 -0.630798,0 -0.924377,0.5950927 -0.289612,0.5911255 -0.289612,1.7456055 0,0.8688354 0.186462,1.3964844 0.285645,0.8053589 0.975953,0.8053589 z"
           style=""
           id="path416" />
      </g>
      <path
         style="fill-rule:nonzero;stroke:#f0f0f0;stroke-width:0.30000001"
         inkscape:connector-curvature="0"
         transform="rotate(-75,25.5,6.5)"
         id="path78"
         d="m 24,6 h 3" />
      <path
         style="fill-rule:nonzero;stroke:#f0f0f0;stroke-width:0.30000001"
         inkscape:connector-curvature="0"
         transform="rotate(-60,29.5,8.5)"
         id="path80"
         d="m 28,8 h 3" />
      <path
         style="fill-rule:nonzero;stroke:#f0f0f0;stroke-width:0.30000001"
         inkscape:connector-curvature="0"
         transform="rotate(-45,33.5,11.5)"
         id="path82"
         d="m 32,11 h 3" />
      <path
         style="fill-rule:nonzero;stroke:#f0f0f0;stroke-width:0.30000001"
         inkscape:connector-curvature="0"
         transform="rotate(-30,36.5,15.5)"
         id="path84"
         d="m 35,15 h 3" />
      <path
         style="fill-rule:nonzero;stroke:#f0f0f0;stroke-width:1.5"
         inkscape:connector-curvature="0"
         transform="rotate(-15,38,19.5)"
         id="path86"
         d="m 36,19 h 4" />
      <path
         style="fill-rule:nonzero;stroke:#f0f0f0;stroke-width:0.30000001"
         inkscape:connector-curvature="0"
         id="path88"
         d="m 37,24 h 3" />
      <path
         style="fill-rule:nonzero;stroke:#f0f0f0;stroke-width:0.30000001"
         inkscape:connector-curvature="0"
         transform="rotate(15,37.5,28.5)"
         id="path90"
         d="m 36,28 h 3" />
      <path
         style="fill-rule:nonzero;stroke:#f0f0f0;stroke-width:0.30000001"
         inkscape:connector-curvature="0"
         transform="rotate(30,35.5,32.5)"
         id="path92"
         d="m 34,32 h 3" />
      <path
         style="fill-rule:nonzero;stroke:#f0f0f0;stroke-width:0.30000001"
         inkscape:connector-curvature="0"
         transform="rotate(45,32.5,36.5)"
         id="path94"
         d="m 31,36 h 3" />
      <path
         style="fill-rule:nonzero;stroke:#f0f0f0;stroke-width:1.5"
         inkscape:connector-curvature="0"
         transform="rotate(60,29,39.5)"
         id="path96"
         d="m 27,39 h 4" />
      <g
         aria-label="-"
         style="font-weight:normal;font-size:11.25px;font-family:Helvetica"
         id="-">
        <path
           d="m 2.4669189,40.358032 h 2.7575684 v 1.016236 H 2.4669189 Z"
           style=""
           id="path419" />
      </g>
      <g
         aria-label="+"
         style="font-weight:normal;font-size:8.75px;font-family:Helvetica"
         id="+">
        <path
           d="m 34.393066,41.128662 v -0.717773 h 1.862793 v -1.875611 h 0.730591 v 1.875611 h 1.862793 v 0.717773 H 36.98645 V 43 h -0.730591 v -1.871338 z"
           style=""
           id="path422" />
      </g>
    </g>
    <g
       style="fill:#efefef"
       transform="translate(8,154)"
       id="knobguide-copy">
      <path
         style="fill-rule:nonzero;stroke:#f0f0f0;stroke-width:1.5"
         inkscape:connector-curvature="0"
         transform="rotate(120,11,39.5)"
         id="path105"
         d="m 9,39 h 4" />
      <path
         style="fill-rule:nonzero;stroke:#f0f0f0;stroke-width:0.30000001"
         inkscape:connector-curvature="0"
         transform="rotate(135,7.5,35.5)"
         id="path107"
         d="M 6,35 H 9" />
      <path
         style="fill-rule:nonzero;stroke:#f0f0f0;stroke-width:0.30000001"
         inkscape:connector-curvature="0"
         transform="rotate(150,4.5,32.5)"
         id="path109"
         d="M 3,32 H 6" />
      <path
         style="fill-rule:nonzero;stroke:#f0f0f0;stroke-width:0.30000001"
         inkscape:connector-curvature="0"
         transform="rotate(165,3.5,27.5)"
         id="path111"
         d="M 2,27 H 5" />
      <path
         style="fill-rule:nonzero;stroke:#f0f0f0;stroke-width:0.30000001"
         inkscape:connector-curvature="0"
         transform="rotate(-180,2.5,23.5)"
         id="path113"
         d="M 1,23 H 4" />
      <path
         style="fill-rule:nonzero;stroke:#f0f0f0;stroke-width:1.5"
         inkscape:connector-curvature="0"
         transform="rotate(-165,3,18.5)"
         id="path115"
         d="M 1,18 H 5" />
      <path
         style="fill-rule:nonzero;stroke:#f0f0f0;stroke-width:0.30000001"
         inkscape:connector-curvature="0"
         transform="rotate(-150,5.5,14.5)"
         id="path117"
         d="M 4,14 H 7" />
      <path
         style="fill-rule:nonzero;stroke:#f0f0f0;stroke-width:0.30000001"
         inkscape:connector-curvature="0"
         transform="rotate(-135,8.5,10.5)"
         id="path119"
         d="m 7,10 h 3" />
      <path
         style="fill-rule:nonzero;stroke:#f0f0f0;stroke-width:0.30000001"
         inkscape:connector-curvature="0"
         transform="rotate(-120,12.5,7.5)"
         id="path121"
         d="m 11,7 h 3" />
      <path
         style="fill-rule:nonzero;stroke:#f0f0f0;stroke-width:0.30000001"
         inkscape:connector-curvature="0"
         transform="rotate(-105,16.5,6.5)"
         id="path123"
         d="m 15,6 h 3" />
      <g
         aria-label="0"
         style="font-weight:normal;font-size:8.125px;font-family:Helvetica"
         id="text127">
        <path
           d="m 20.938507,2.3188477 q 1.102905,0 1.594849,0.9085083 0.380859,0.7022094 0.380859,1.9241333 0,1.1584472 -0.345154,1.9161987 -0.499878,1.0870361 -1.634521,1.0870361 -1.02356,0 -1.523438,-0.8886719 -0.416565,-0.7418823 -0.416565,-1.9915771 0,-0.9680176 0.249939,-1.6622925 0.46814,-1.2933349 1.694031,-1.2933349 z m -0.0079,5.1852417 q 0.555419,0 0.884704,-0.4919434 0.329285,-0.4919434 0.329285,-1.8328857 0,-0.9680176 -0.238037,-1.5908814 -0.238037,-0.626831 -0.924378,-0.626831 -0.630798,0 -0.924377,0.5950927 -0.289612,0.5911255 -0.289612,1.7456055 0,0.8688354 0.186462,1.3964844 0.285645,0.8053589 0.975953,0.8053589 z"
           style=""
           id="path425" />
      </g>
      <path
         style="fill-rule:nonzero;stroke:#f0f0f0;stroke-width:0.30000001"
         inkscape:connector-curvature="0"
         transform="rotate(-75,25.5,6.5)"
         id="path129"
         d="m 24,6 h 3" />
      <path
         style="fill-rule:nonzero;stroke:#f0f0f0;stroke-width:0.30000001"
         inkscape:connector-curvature="0"
         transform="rotate(-60,29.5,8.5)"
         id="path131"
         d="m 28,8 h 3" />
      <path
         style="fill-rule:nonzero;stroke:#f0f0f0;stroke-width:0.30000001"
         inkscape:connector-curvature="0"
         transform="rotate(-45,33.5,11.5)"
         id="path133"
         d="m 32,11 h 3" />
      <path
         style="fill-rule:nonzero;stroke:#f0f0f0;stroke-width:0.30000001"
         inkscape:connector-curvature="0"
         transform="rotate(-30,36.5,15.5)"
         id="path135"
         d="m 35,15 h 3" />
      <path
         style="fill-rule:nonzero;stroke:#f0f0f0;stroke-width:1.5"
         inkscape:connector-curvature="0"
         transform="rotate(-15,38,19.5)"
         id="path137"
         d="m 36,19 h 4" />
      <path
         style="fill-rule:nonzero;stroke:#f0f0f0;stroke-width:0.30000001"
         inkscape:connector-curvature="0"
         id="path139"
         d="m 37,24 h 3" />
      <path
         style="fill-rule:nonzero;stroke:#f0f0f0;stroke-width:0.30000001"
         inkscape:connector-curvature="0"
         transform="rotate(15,37.5,28.5)"
         id="path141"
         d="m 36,28 h 3" />
      <path
         style="fill-rule:nonzero;stroke:#f0f0f0;stroke-width:0.30000001"
         inkscape:connector-curvature="0"
         transform="rotate(30,35.5,32.5)"
         id="path143"
         d="m 34,32 h 3" />
      <path
         style="fill-rule:nonzero;stroke:#f0f0f0;stroke-width:0.30000001"
         inkscape:connector-curvature="0"
         transform="rotate(45,32.5,36.5)"
         id="path145"
         d="m 31,36 h 3" />
      <path
         style="fill-rule:nonzero;stroke:#f0f0f0;stroke-width:1.5"
         inkscape:connector-curvature="0"
         transform="rotate(60,29,39.5)"
         id="path147"
         d="m 27,39 h 4" />
      <g
         aria-label="-"
         style="font-weight:normal;font-size:11.25px;font-family:Helvetica"
         id="text151">
        <path
           d="m 2.4669189,40.358032 h 2.7575684 v 1.016236 H 2.4669189 Z"
           style=""
           id="path428" />
      </g>
      <g
         aria-label="+"
         style="font-weight:normal;font-size:8.75px;font-family:Helvetica"
         id="text155">
        <path
           d="m 34.393066,41.128662 v -0.717773 h 1.862793 v -1.875611 h 0.730591 v 1.875611 h 1.862793 v 0.717773 H 36.98645 V 43 h -0.730591 v -1.871338 z"
           style=""
           id="path431" />
      </g>
    </g>
    <g
       aria-label="SCALE"
       transform="rotate(90,163,178)"
       style="font-weight:normal;font-size:9px;font-family:InputSans-Regular, 'Input Sans';fill:#f0f0f0"
       id="SCALE">
      <path
         d="m 151.21818,182.04909 q -0.94909,0 -1.61182,-0.34364 -0.65455,-0.34363 -1.00636,-1.30909 l 0.7609,-0.30272 q 0.25364,0.69545 0.67091,0.95727 0.42546,0.26182 1.23546,0.26182 0.71182,0 1.15363,-0.26182 0.44182,-0.26182 0.44182,-0.86727 0,-0.55637 -0.39272,-0.77728 -0.38455,-0.22909 -1.39091,-0.38454 -1.26,-0.18818 -1.76728,-0.58909 -0.49909,-0.40091 -0.49909,-1.21091 0,-0.83455 0.60546,-1.31727 0.60545,-0.48273 1.65272,-0.48273 0.9491,0 1.56273,0.32727 0.61364,0.31909 0.92455,1.16182 l -0.76091,0.30273 q -0.21273,-0.58909 -0.66273,-0.81819 -0.45,-0.23727 -1.11273,-0.23727 -0.62181,0 -1.00636,0.22091 -0.37636,0.22091 -0.37636,0.76909 0,0.55637 0.40909,0.76909 0.40909,0.21273 1.47272,0.36818 1.19455,0.18 1.67728,0.57273 0.48272,0.39273 0.48272,1.18637 0,0.93272 -0.66272,1.47272 -0.65455,0.53182 -1.8,0.53182 z"
         style=""
         id="path434" />
      <path
         d="m 157.75724,182.08182 q -1.23545,0 -1.89,-0.59727 -0.64636,-0.60546 -0.64636,-1.75091 v -1.98 q 0,-1.16182 0.65454,-1.76728 0.65455,-0.61363 1.89,-0.61363 1.17,0 1.81637,0.54 0.65454,0.53182 0.71181,1.67727 l -0.81818,0.0818 q -0.0736,-0.9 -0.47454,-1.22727 -0.40091,-0.33546 -1.24364,-0.33546 -0.91636,0 -1.31727,0.38455 -0.40091,0.38454 -0.40091,1.26 v 1.98 q 0,0.85909 0.40091,1.23545 0.40091,0.37636 1.31727,0.37636 0.9,0 1.30091,-0.35181 0.40909,-0.36 0.41727,-1.17819 l 0.81818,0.0818 q 0,1.06364 -0.65454,1.62818 -0.64637,0.55637 -1.88182,0.55637 z"
         style=""
         id="path436" />
      <path
         d="m 165.34358,179.38182 -1.13728,-3.10909 -1.14545,3.10909 z m 0.95727,2.61818 -0.68727,-1.88182 h -2.82273 L 162.10358,182 h -0.83455 l 2.52,-6.54545 h 0.85909 l 2.52,6.54545 z"
         style=""
         id="path438" />
      <path
         d="m 168.299,182 v -6.54545 h 0.81818 v 5.80909 h 2.94546 V 182 Z"
         style=""
         id="path440" />
      <path
         d="m 173.2033,182 v -6.54545 h 4.25454 v 0.73636 h -3.43636 v 1.88182 h 3.02727 v 0.73636 h -3.02727 v 2.45455 h 3.43636 V 182 Z"
         style=""
         id="path442" />
    </g>
    <g
       aria-label="SENS"
       transform="rotate(90,55,177.5)"
       style="font-weight:normal;font-size:9px;font-family:InputSans-Regular, 'Input Sans';fill:#f0f0f0"
       id="SENS">
      <path
         d="m 45.672726,181.54909 q -0.949091,0 -1.611819,-0.34364 -0.654545,-0.34363 -1.006363,-1.30909 l 0.760909,-0.30272 q 0.253636,0.69545 0.670909,0.95727 0.425454,0.26182 1.235454,0.26182 0.711819,0 1.153637,-0.26182 0.441818,-0.26182 0.441818,-0.86727 0,-0.55637 -0.392727,-0.77728 -0.384546,-0.22909 -1.390909,-0.38454 -1.26,-0.18818 -1.767273,-0.58909 -0.499091,-0.40091 -0.499091,-1.21091 0,-0.83455 0.605455,-1.31727 0.605454,-0.48273 1.652727,-0.48273 0.949091,0 1.562727,0.32727 0.613636,0.31909 0.924546,1.16182 l -0.76091,0.30273 q -0.212727,-0.58909 -0.662727,-0.81819 -0.45,-0.23727 -1.112727,-0.23727 -0.621818,0 -1.006364,0.22091 -0.376363,0.22091 -0.376363,0.76909 0,0.55637 0.409091,0.76909 0.40909,0.21273 1.472727,0.36818 1.194545,0.18 1.677273,0.57273 0.482727,0.39273 0.482727,1.18637 0,0.93272 -0.662727,1.47272 -0.654546,0.53182 -1.8,0.53182 z"
         style=""
         id="path445" />
      <path
         d="m 49.675424,181.5 v -6.54545 h 4.254546 v 0.73636 h -3.436364 v 1.88182 h 3.027273 v 0.73636 h -3.027273 v 2.45455 H 53.92997 V 181.5 Z"
         style=""
         id="path447" />
      <path
         d="m 59.144984,181.5 -2.961818,-5.44909 V 181.5 h -0.777273 v -6.54545 h 1.120909 l 3.010909,5.55545 v -5.55545 h 0.777273 V 181.5 Z"
         style=""
         id="path449" />
      <path
         d="m 64.481319,181.54909 q -0.949091,0 -1.611818,-0.34364 -0.654545,-0.34363 -1.006364,-1.30909 l 0.76091,-0.30272 q 0.253636,0.69545 0.670909,0.95727 0.425454,0.26182 1.235454,0.26182 0.711818,0 1.153637,-0.26182 0.441818,-0.26182 0.441818,-0.86727 0,-0.55637 -0.392728,-0.77728 -0.384545,-0.22909 -1.390909,-0.38454 -1.26,-0.18818 -1.767272,-0.58909 -0.499091,-0.40091 -0.499091,-1.21091 0,-0.83455 0.605454,-1.31727 0.605455,-0.48273 1.652728,-0.48273 0.94909,0 1.562727,0.32727 0.613636,0.31909 0.924545,1.16182 l -0.760909,0.30273 q -0.212727,-0.58909 -0.662727,-0.81819 -0.45,-0.23727 -1.112727,-0.23727 -0.621819,0 -1.006364,0.22091 -0.376364,0.22091 -0.376364,0.76909 0,0.55637 0.409091,0.76909 0.409091,0.21273 1.472728,0.36818 1.194545,0.18 1.677272,0.57273 0.482728,0.39273 0.482728,1.18637 0,0.93272 -0.662728,1.47272 -0.654545,0.53182 -1.8,0.53182 z"
         style=""
         id="path451" />
    </g>
    <g
       style="fill:#efefef"
       transform="translate(116,290.5)"
       id="g216">
      <path
         style="fill-rule:nonzero;stroke:#f0f0f0;stroke-width:1.5"
         inkscape:connector-curvature="0"
         transform="rotate(120,11,39.5)"
         id="path164"
         d="m 9,39 h 4" />
      <path
         style="fill-rule:nonzero;stroke:#f0f0f0;stroke-width:0.30000001"
         inkscape:connector-curvature="0"
         transform="rotate(135,7.5,35.5)"
         id="path166"
         d="M 6,35 H 9" />
      <path
         style="fill-rule:nonzero;stroke:#f0f0f0;stroke-width:0.30000001"
         inkscape:connector-curvature="0"
         transform="rotate(150,4.5,32.5)"
         id="path168"
         d="M 3,32 H 6" />
      <path
         style="fill-rule:nonzero;stroke:#f0f0f0;stroke-width:0.30000001"
         inkscape:connector-curvature="0"
         transform="rotate(165,3.5,27.5)"
         id="path170"
         d="M 2,27 H 5" />
      <path
         style="fill-rule:nonzero;stroke:#f0f0f0;stroke-width:0.30000001"
         inkscape:connector-curvature="0"
         transform="rotate(-180,2.5,23.5)"
         id="path172"
         d="M 1,23 H 4" />
      <path
         style="fill-rule:nonzero;stroke:#f0f0f0;stroke-width:1.5"
         inkscape:connector-curvature="0"
         transform="rotate(-165,3,18.5)"
         id="path174"
         d="M 1,18 H 5" />
      <path
         style="fill-rule:nonzero;stroke:#f0f0f0;stroke-width:0.30000001"
         inkscape:connector-curvature="0"
         transform="rotate(-150,5.5,14.5)"
         id="path176"
         d="M 4,14 H 7" />
      <path
         style="fill-rule:nonzero;stroke:#f0f0f0;stroke-width:0.30000001"
         inkscape:connector-curvature="0"
         transform="rotate(-135,8.5,10.5)"
         id="path178"
         d="m 7,10 h 3" />
      <path
         style="fill-rule:nonzero;stroke:#f0f0f0;stroke-width:0.30000001"
         inkscape:connector-curvature="0"
         transform="rotate(-120,12.5,7.5)"
         id="path180"
         d="m 11,7 h 3" />
      <path
         style="fill-rule:nonzero;stroke:#f0f0f0;stroke-width:0.30000001"
         inkscape:connector-curvature="0"
         transform="rotate(-105,16.5,6.5)"
         id="path182"
         d="m 15,6 h 3" />
      <g
         aria-label="0"
         style="font-weight:normal;font-size:8.125px;font-family:Helvetica"
         id="text186">
        <path
           d="m 20.938507,2.3188477 q 1.102905,0 1.594849,0.9085083 0.380859,0.7022094 0.380859,1.9241333 0,1.1584472 -0.345154,1.9161987 -0.499878,1.0870361 -1.634521,1.0870361 -1.02356,0 -1.523438,-0.8886719 -0.416565,-0.7418823 -0.416565,-1.9915771 0,-0.9680176 0.249939,-1.6622925 0.46814,-1.2933349 1.694031,-1.2933349 z m -0.0079,5.1852417 q 0.555419,0 0.884704,-0.4919434 0.329285,-0.4919434 0.329285,-1.8328857 0,-0.9680176 -0.238037,-1.5908814 -0.238037,-0.626831 -0.924378,-0.626831 -0.630798,0 -0.924377,0.5950927 -0.289612,0.5911255 -0.289612,1.7456055 0,0.8688354 0.186462,1.3964844 0.285645,0.8053589 0.975953,0.8053589 z"
           style=""
           id="path454" />
      </g>
      <path
         style="fill-rule:nonzero;stroke:#f0f0f0;stroke-width:0.30000001"
         inkscape:connector-curvature="0"
         transform="rotate(-75,25.5,6.5)"
         id="path188"
         d="m 24,6 h 3" />
      <path
         style="fill-rule:nonzero;stroke:#f0f0f0;stroke-width:0.30000001"
         inkscape:connector-curvature="0"
         transform="rotate(-60,29.5,8.5)"
         id="path190"
         d="m 28,8 h 3" />
      <path
         style="fill-rule:nonzero;stroke:#f0f0f0;stroke-width:0.30000001"
         inkscape:connector-curvature="0"
         transform="rotate(-45,33.5,11.5)"
         id="path192"
         d="m 32,11 h 3" />
      <path
         style="fill-rule:nonzero;stroke:#f0f0f0;stroke-width:0.30000001"
         inkscape:connector-curvature="0"
         transform="rotate(-30,36.5,15.5)"
         id="path194"
         d="m 35,15 h 3" />
      <path
         style="fill-rule:nonzero;stroke:#f0f0f0;stroke-width:1.5"
         inkscape:connector-curvature="0"
         transform="rotate(-15,38,19.5)"
         id="path196"
         d="m 36,19 h 4" />
      <path
         style="fill-rule:nonzero;stroke:#f0f0f0;stroke-width:0.30000001"
         inkscape:connector-curvature="0"
         id="path198"
         d="m 37,24 h 3" />
      <path
         style="fill-rule:nonzero;stroke:#f0f0f0;stroke-width:0.30000001"
         inkscape:connector-curvature="0"
         transform="rotate(15,37.5,28.5)"
         id="path200"
         d="m 36,28 h 3" />
      <path
         style="fill-rule:nonzero;stroke:#f0f0f0;stroke-width:0.30000001"
         inkscape:connector-curvature="0"
         transform="rotate(30,35.5,32.5)"
         id="path202"
         d="m 34,32 h 3" />
      <path
         style="fill-rule:nonzero;stroke:#f0f0f0;stroke-width:0.30000001"
         inkscape:connector-curvature="0"
         transform="rotate(45,32.5,36.5)"
         id="path204"
         d="m 31,36 h 3" />
      <path
         style="fill-rule:nonzero;stroke:#f0f0f0;stroke-width:1.5"
         inkscape:connector-curvature="0"
         transform="rotate(60,29,39.5)"
         id="path206"
         d="m 27,39 h 4" />
      <g
         aria-label="-"
         style="font-weight:normal;font-size:11.25px;font-family:Helvetica"
         id="text210">
        <path
           d="m 2.4669189,40.358032 h 2.7575684 v 1.016236 H 2.4669189 Z"
           style=""
           id="path457" />
      </g>
      <g
         aria-label="+"
         style="font-weight:normal;font-size:8.75px;font-family:Helvetica"
         id="text214">
        <path
           d="m 34.393066,41.128662 v -0.717773 h 1.862793 v -1.875611 h 0.730591 v 1.875611 h 1.862793 v 0.717773 H 36.98645 V 43 h -0.730591 v -1.871338 z"
           style=""
           id="path460" />
      </g>
    </g>
    <g
       aria-label="SCALE"
       transform="rotate(90,163,314.5)"
       style="font-weight:normal;font-size:9px;font-family:InputSans-Regular, 'Input Sans';fill:#f0f0f0"
       id="text220">
      <path
         d="m 151.21818,318.54909 q -0.94909,0 -1.61182,-0.34364 -0.65455,-0.34363 -1.00636,-1.30909 l 0.7609,-0.30272 q 0.25364,0.69545 0.67091,0.95727 0.42546,0.26182 1.23546,0.26182 0.71182,0 1.15363,-0.26182 0.44182,-0.26182 0.44182,-0.86727 0,-0.55637 -0.39272,-0.77728 -0.38455,-0.22909 -1.39091,-0.38454 -1.26,-0.18818 -1.76728,-0.58909 -0.49909,-0.40091 -0.49909,-1.21091 0,-0.83455 0.60546,-1.31727 0.60545,-0.48273 1.65272,-0.48273 0.9491,0 1.56273,0.32727 0.61364,0.31909 0.92455,1.16182 l -0.76091,0.30273 q -0.21273,-0.58909 -0.66273,-0.81819 -0.45,-0.23727 -1.11273,-0.23727 -0.62181,0 -1.00636,0.22091 -0.37636,0.22091 -0.37636,0.76909 0,0.55637 0.40909,0.76909 0.40909,0.21273 1.47272,0.36818 1.19455,0.18 1.67728,0.57273 0.48272,0.39273 0.48272,1.18637 0,0.93272 -0.66272,1.47272 -0.65455,0.53182 -1.8,0.53182 z"
         style=""
         id="path463" />
      <path
         d="m 157.75724,318.58182 q -1.23545,0 -1.89,-0.59727 -0.64636,-0.60546 -0.64636,-1.75091 v -1.98 q 0,-1.16182 0.65454,-1.76728 0.65455,-0.61363 1.89,-0.61363 1.17,0 1.81637,0.54 0.65454,0.53182 0.71181,1.67727 l -0.81818,0.0818 q -0.0736,-0.9 -0.47454,-1.22727 -0.40091,-0.33546 -1.24364,-0.33546 -0.91636,0 -1.31727,0.38455 -0.40091,0.38454 -0.40091,1.26 v 1.98 q 0,0.85909 0.40091,1.23545 0.40091,0.37636 1.31727,0.37636 0.9,0 1.30091,-0.35181 0.40909,-0.36 0.41727,-1.17819 l 0.81818,0.0818 q 0,1.06364 -0.65454,1.62818 -0.64637,0.55637 -1.88182,0.55637 z"
         style=""
         id="path465" />
      <path
         d="m 165.34358,315.88182 -1.13728,-3.10909 -1.14545,3.10909 z m 0.95727,2.61818 -0.68727,-1.88182 h -2.82273 L 162.10358,318.5 h -0.83455 l 2.52,-6.54545 h 0.85909 l 2.52,6.54545 z"
         style=""
         id="path467" />
      <path
         d="m 168.299,318.5 v -6.54545 h 0.81818 v 5.80909 h 2.94546 V 318.5 Z"
         style=""
         id="path469" />
      <path
         d="m 173.2033,318.5 v -6.54545 h 4.25454 v 0.73636 h -3.43636 v 1.88182 h 3.02727 v 0.73636 h -3.02727 v 2.45455 h 3.43636 V 318.5 Z"
         style=""
         id="path471" />
    </g>
    <path
       inkscape:connector-curvature="0"
       style="mix-blend-mode:lighten;fill:url(#linearGradient-1)"
       id="Screen-Shadow"
       d="M 84,1.3093103 177.5,221.58418 177.76158,27.919304 c 0,0 0,-6.457011 0,-7.769875 0,-8.428657 -7.20126,-16.8071082 -15.44714,-18.8401187 -2.82276,-0.69594818 -78.31444,0 -78.31444,0 z" />
  </g>
</svg>
