<?xml version="1.0" encoding="UTF-8" standalone="no"?>
<svg
   xmlns:dc="http://purl.org/dc/elements/1.1/"
   xmlns:cc="http://creativecommons.org/ns#"
   xmlns:rdf="http://www.w3.org/1999/02/22-rdf-syntax-ns#"
   xmlns:svg="http://www.w3.org/2000/svg"
   xmlns="http://www.w3.org/2000/svg"
   xmlns:xlink="http://www.w3.org/1999/xlink"
   xmlns:sodipodi="http://sodipodi.sourceforge.net/DTD/sodipodi-0.dtd"
   xmlns:inkscape="http://www.inkscape.org/namespaces/inkscape"
   width="35px"
   height="9px"
   viewBox="0 0 35 9"
   version="1.1"
   id="svg37"
   sodipodi:docname="svg_render_tmp.svg"
   inkscape:version="0.92.2 5c3e80d, 2017-08-06">
  <metadata
     id="metadata41">
    <rdf:RDF>
      <cc:Work
         rdf:about="">
        <dc:format>image/svg+xml</dc:format>
        <dc:type
           rdf:resource="http://purl.org/dc/dcmitype/StillImage" />
      </cc:Work>
    </rdf:RDF>
  </metadata>
  <sodipodi:namedview
     pagecolor="#ffffff"
     bordercolor="#666666"
     borderopacity="1"
     objecttolerance="10"
     gridtolerance="10"
     guidetolerance="10"
     inkscape:pageopacity="0"
     inkscape:pageshadow="2"
     inkscape:window-width="582"
     inkscape:window-height="449"
     id="namedview39"
     showgrid="false"
     inkscape:zoom="12.514286"
     inkscape:cx="17.5"
     inkscape:cy="4.5"
     inkscape:window-x="0"
     inkscape:window-y="0"
     inkscape:window-maximized="0"
     inkscape:current-layer="svg37" />
  <!-- Generator: Sketch 48.2 (47327) - http://www.bohemiancoding.com/sketch -->
  <title
     id="title2">slider_switch_2_35x9_1-src</title>
  <desc
     id="desc4">Created with Sketch.</desc>
  <defs
     id="defs10">
    <path
       d="M4,0 L31,0 C33.209139,-4.05812251e-16 35,1.790861 35,4 L35,5 C35,7.209139 33.209139,9 31,9 L28.330001,9 L4,9 C1.790861,9 2.705415e-16,7.209139 0,5 L0,4 C-2.705415e-16,1.790861 1.790861,4.05812251e-16 4,0 Z"
       id="path-1" />
    <rect
       id="path-2"
       x="15"
       y="2"
       width="18"
       height="5"
       rx="2" />
    <rect
       id="path-3"
       x="15"
       y="2"
       width="18"
       height="5"
       rx="2" />
    <rect
       id="path-4"
       x="15"
       y="2"
       width="18"
       height="5"
       rx="2" />
  </defs>
  <g
     style="fill:none;fill-rule:evenodd;stroke:none;stroke-width:1"
     id="g34">
    <g
       id="Rectangle-3">
      <use
         height="100%"
         width="100%"
         y="0"
         x="0"
         style="fill:#313132;fill-rule:evenodd"
         id="use12"
         xlink:href="#path-1" />
      <path
         style="stroke:#c1c1c1;stroke-width:1"
         inkscape:connector-curvature="0"
         id="path14"
         d="M 4,0.5 C 2.0670034,0.5 0.5,2.0670034 0.5,4 v 1 c 0,1.9329966 1.5670034,3.5 3.5,3.5 h 27 c 1.932997,0 3.5,-1.5670034 3.5,-3.5 V 4 C 34.5,2.0670034 32.932997,0.5 31,0.5 Z" />
    </g>
    <g
       id="Rectangle-5">
      <use
         height="100%"
         width="100%"
         y="0"
         x="0"
         style="fill:#dadada;fill-rule:evenodd"
         id="use17"
         xlink:href="#path-2" />
      <path
         style="stroke:#313132;stroke-width:1"
         d="m 16.5,1.5 h 15 c 1.108,0 2,0.892 2,2 v 2 c 0,1.108 -0.892,2 -2,2 h -15 c -1.108,0 -2,-0.892 -2,-2 v -2 c 0,-1.108 0.892,-2 2,-2 z"
         id="rect19" />
    </g>
    <g
       id="g26">
      <use
         height="100%"
         width="100%"
         y="0"
         x="0"
         style="fill:#dadada;fill-rule:evenodd"
         id="use22"
         xlink:href="#path-3" />
      <path
         style="stroke:#313132;stroke-width:1"
         d="m 16.5,1.5 h 15 c 1.108,0 2,0.892 2,2 v 2 c 0,1.108 -0.892,2 -2,2 h -15 c -1.108,0 -2,-0.892 -2,-2 v -2 c 0,-1.108 0.892,-2 2,-2 z"
         id="rect24" />
    </g>
    <g
       id="g32">
      <use
         height="100%"
         width="100%"
         y="0"
         x="0"
         style="fill:#dadada;fill-rule:evenodd"
         id="use28"
         xlink:href="#path-4" />
      <path
         style="stroke:#313132;stroke-width:1"
         d="m 16.5,1.5 h 15 c 1.108,0 2,0.892 2,2 v 2 c 0,1.108 -0.892,2 -2,2 h -15 c -1.108,0 -2,-0.892 -2,-2 v -2 c 0,-1.108 0.892,-2 2,-2 z"
         id="rect30" />
    </g>
  </g>
</svg>
