<?xml version="1.0" encoding="UTF-8"?>
<svg width="45px" height="380px" viewBox="0 0 45 380" version="1.1" xmlns="http://www.w3.org/2000/svg" xmlns:xlink="http://www.w3.org/1999/xlink">
    <!-- Generator: Sketch 48.2 (47327) - http://www.bohemiancoding.com/sketch -->
    <title>ALV-src</title>
    <desc>Created with Sketch.</desc>
    <defs>
        <linearGradient x1="50%" y1="0%" x2="50%" y2="100%" id="linearGradient-1">
            <stop stop-color="#4D4E4F" stop-opacity="0.710765165" offset="0%"></stop>
            <stop stop-color="#000000" stop-opacity="0.431008732" offset="100%"></stop>
        </linearGradient>
    </defs>
    <g id="Page-2" stroke="none" stroke-width="1" fill="none" fill-rule="evenodd">
        <g id="ALV-src">
            <rect id="Rectangle-2" fill="#D9D9D9" x="0" y="0" width="45" height="380"></rect>
            <path d="M5,0 L25,0 C36.045695,-2.02906125e-15 45,8.954305 45,20 L45,373 C45,375.761424 42.7614237,378 40,378 L20,378 C8.954305,378 1.3527075e-15,369.045695 0,358 L0,5 C-3.38176876e-16,2.23857625 2.23857625,5.07265313e-16 5,0 Z" id="Rectangle" fill="#C1C1C1"></path>
            <path d="M6.5,1 L23.5,1 C34.545695,1 43.5,9.954305 43.5,21 L43.5,371 C43.5,373.761424 41.2614237,376 38.5,376 L21.5,376 C10.454305,376 1.5,367.045695 1.5,356 L1.5,6 C1.5,3.23857625 3.73857625,1 6.5,1 Z" id="Rectangle" fill="#010101"></path>
            <path d="M10.5232738,1.0229817 L43.5915383,130.398136 L43.5915383,27.9807966 C43.5915383,27.9807966 43.5915383,21.5237865 43.5915383,20.2109217 C43.5915383,11.7822649 36.3902838,3.40381387 28.1444032,1.3708034 C25.3216407,0.674855227 10.5232738,1.0229817 10.5232738,1.0229817 Z" id="Screen-Shadow" fill="url(#linearGradient-1)" style="mix-blend-mode: lighten;"></path>
            <text id="OFFSET" font-family="InputSans-Regular, Input Sans" font-size="9" font-weight="normal" fill="#F0F0F0">
                <tspan x="5" y="242">OFFSET</tspan>
            </text>
            <g id="knobguide" transform="translate(2.000000, 254.000000)" fill="#EFEFEF">
                <path d="M9,39 L13,39" id="Shape" stroke="#F0F0F0" stroke-width="1.5" fill-rule="nonzero" transform="translate(11.000000, 39.500000) rotate(120.000000) translate(-11.000000, -39.500000) "></path>
                <path d="M6,35 L9,35" id="Shape" stroke="#F0F0F0" stroke-width="0.3" fill-rule="nonzero" transform="translate(7.500000, 35.500000) rotate(135.000000) translate(-7.500000, -35.500000) "></path>
                <path d="M3,32 L6,32" id="Shape" stroke="#F0F0F0" stroke-width="0.3" fill-rule="nonzero" transform="translate(4.500000, 32.500000) rotate(150.000000) translate(-4.500000, -32.500000) "></path>
                <path d="M2,27 L5,27" id="Shape" stroke="#F0F0F0" stroke-width="0.3" fill-rule="nonzero" transform="translate(3.500000, 27.500000) rotate(165.000000) translate(-3.500000, -27.500000) "></path>
                <path d="M1,23 L4,23" id="Shape" stroke="#F0F0F0" stroke-width="0.3" fill-rule="nonzero" transform="translate(2.500000, 23.500000) rotate(-180.000000) translate(-2.500000, -23.500000) "></path>
                <path d="M1,18 L5,18" id="Shape" stroke="#F0F0F0" stroke-width="1.5" fill-rule="nonzero" transform="translate(3.000000, 18.500000) rotate(-165.000000) translate(-3.000000, -18.500000) "></path>
                <path d="M4,14 L7,14" id="Shape" stroke="#F0F0F0" stroke-width="0.3" fill-rule="nonzero" transform="translate(5.500000, 14.500000) rotate(-150.000000) translate(-5.500000, -14.500000) "></path>
                <path d="M7,10 L10,10" id="Shape" stroke="#F0F0F0" stroke-width="0.3" fill-rule="nonzero" transform="translate(8.500000, 10.500000) rotate(-135.000000) translate(-8.500000, -10.500000) "></path>
                <path d="M11,7 L14,7" id="Shape" stroke="#F0F0F0" stroke-width="0.3" fill-rule="nonzero" transform="translate(12.500000, 7.500000) rotate(-120.000000) translate(-12.500000, -7.500000) "></path>
                <path d="M15,6 L18,6" id="Shape" stroke="#F0F0F0" stroke-width="0.3" fill-rule="nonzero" transform="translate(16.500000, 6.500000) rotate(-105.000000) translate(-16.500000, -6.500000) "></path>
                <text id="0" font-family="Helvetica" font-size="8.125" font-weight="normal">
                    <tspan x="18.7406311" y="8">0</tspan>
                </text>
                <path d="M24,6 L27,6" id="Shape" stroke="#F0F0F0" stroke-width="0.3" fill-rule="nonzero" transform="translate(25.500000, 6.500000) rotate(-75.000000) translate(-25.500000, -6.500000) "></path>
                <path d="M28,8 L31,8" id="Shape" stroke="#F0F0F0" stroke-width="0.3" fill-rule="nonzero" transform="translate(29.500000, 8.500000) rotate(-60.000000) translate(-29.500000, -8.500000) "></path>
                <path d="M32,11 L35,11" id="Shape" stroke="#F0F0F0" stroke-width="0.3" fill-rule="nonzero" transform="translate(33.500000, 11.500000) rotate(-45.000000) translate(-33.500000, -11.500000) "></path>
                <path d="M35,15 L38,15" id="Shape" stroke="#F0F0F0" stroke-width="0.3" fill-rule="nonzero" transform="translate(36.500000, 15.500000) rotate(-30.000000) translate(-36.500000, -15.500000) "></path>
                <path d="M36,19 L40,19" id="Shape" stroke="#F0F0F0" stroke-width="1.5" fill-rule="nonzero" transform="translate(38.000000, 19.500000) rotate(-15.000000) translate(-38.000000, -19.500000) "></path>
                <path d="M37,24 L40,24" id="Shape" stroke="#F0F0F0" stroke-width="0.3" fill-rule="nonzero"></path>
                <path d="M36,28 L39,28" id="Shape" stroke="#F0F0F0" stroke-width="0.3" fill-rule="nonzero" transform="translate(37.500000, 28.500000) rotate(15.000000) translate(-37.500000, -28.500000) "></path>
                <path d="M34,32 L37,32" id="Shape" stroke="#F0F0F0" stroke-width="0.3" fill-rule="nonzero" transform="translate(35.500000, 32.500000) rotate(30.000000) translate(-35.500000, -32.500000) "></path>
                <path d="M31,36 L34,36" id="Shape" stroke="#F0F0F0" stroke-width="0.3" fill-rule="nonzero" transform="translate(32.500000, 36.500000) rotate(45.000000) translate(-32.500000, -36.500000) "></path>
                <path d="M27,39 L31,39" id="Shape" stroke="#F0F0F0" stroke-width="1.5" fill-rule="nonzero" transform="translate(29.000000, 39.500000) rotate(60.000000) translate(-29.000000, -39.500000) "></path>
                <text id="-" font-family="Helvetica" font-size="11.25" font-weight="normal">
                    <tspan x="2" y="44">-</tspan>
                </text>
                <text id="+" font-family="Helvetica" font-size="8.75" font-weight="normal">
                    <tspan x="34" y="43">+</tspan>
                </text>
            </g>
            <g id="knobguide" transform="translate(2.000000, 189.000000)" fill="#EFEFEF">
                <path d="M9,39 L13,39" id="Shape" stroke="#F0F0F0" stroke-width="1.5" fill-rule="nonzero" transform="translate(11.000000, 39.500000) rotate(120.000000) translate(-11.000000, -39.500000) "></path>
                <path d="M6,35 L9,35" id="Shape" stroke="#F0F0F0" stroke-width="0.3" fill-rule="nonzero" transform="translate(7.500000, 35.500000) rotate(135.000000) translate(-7.500000, -35.500000) "></path>
                <path d="M3,32 L6,32" id="Shape" stroke="#F0F0F0" stroke-width="0.3" fill-rule="nonzero" transform="translate(4.500000, 32.500000) rotate(150.000000) translate(-4.500000, -32.500000) "></path>
                <path d="M2,27 L5,27" id="Shape" stroke="#F0F0F0" stroke-width="0.3" fill-rule="nonzero" transform="translate(3.500000, 27.500000) rotate(165.000000) translate(-3.500000, -27.500000) "></path>
                <path d="M1,23 L4,23" id="Shape" stroke="#F0F0F0" stroke-width="0.3" fill-rule="nonzero" transform="translate(2.500000, 23.500000) rotate(-180.000000) translate(-2.500000, -23.500000) "></path>
                <path d="M1,18 L5,18" id="Shape" stroke="#F0F0F0" stroke-width="1.5" fill-rule="nonzero" transform="translate(3.000000, 18.500000) rotate(-165.000000) translate(-3.000000, -18.500000) "></path>
                <path d="M4,14 L7,14" id="Shape" stroke="#F0F0F0" stroke-width="0.3" fill-rule="nonzero" transform="translate(5.500000, 14.500000) rotate(-150.000000) translate(-5.500000, -14.500000) "></path>
                <path d="M7,10 L10,10" id="Shape" stroke="#F0F0F0" stroke-width="0.3" fill-rule="nonzero" transform="translate(8.500000, 10.500000) rotate(-135.000000) translate(-8.500000, -10.500000) "></path>
                <path d="M11,7 L14,7" id="Shape" stroke="#F0F0F0" stroke-width="0.3" fill-rule="nonzero" transform="translate(12.500000, 7.500000) rotate(-120.000000) translate(-12.500000, -7.500000) "></path>
                <path d="M15,6 L18,6" id="Shape" stroke="#F0F0F0" stroke-width="0.3" fill-rule="nonzero" transform="translate(16.500000, 6.500000) rotate(-105.000000) translate(-16.500000, -6.500000) "></path>
                <text id="0" font-family="Helvetica" font-size="8.125" font-weight="normal">
                    <tspan x="18.7406311" y="8">0</tspan>
                </text>
                <path d="M24,6 L27,6" id="Shape" stroke="#F0F0F0" stroke-width="0.3" fill-rule="nonzero" transform="translate(25.500000, 6.500000) rotate(-75.000000) translate(-25.500000, -6.500000) "></path>
                <path d="M28,8 L31,8" id="Shape" stroke="#F0F0F0" stroke-width="0.3" fill-rule="nonzero" transform="translate(29.500000, 8.500000) rotate(-60.000000) translate(-29.500000, -8.500000) "></path>
                <path d="M32,11 L35,11" id="Shape" stroke="#F0F0F0" stroke-width="0.3" fill-rule="nonzero" transform="translate(33.500000, 11.500000) rotate(-45.000000) translate(-33.500000, -11.500000) "></path>
                <path d="M35,15 L38,15" id="Shape" stroke="#F0F0F0" stroke-width="0.3" fill-rule="nonzero" transform="translate(36.500000, 15.500000) rotate(-30.000000) translate(-36.500000, -15.500000) "></path>
                <path d="M36,19 L40,19" id="Shape" stroke="#F0F0F0" stroke-width="1.5" fill-rule="nonzero" transform="translate(38.000000, 19.500000) rotate(-15.000000) translate(-38.000000, -19.500000) "></path>
                <path d="M37,24 L40,24" id="Shape" stroke="#F0F0F0" stroke-width="0.3" fill-rule="nonzero"></path>
                <path d="M36,28 L39,28" id="Shape" stroke="#F0F0F0" stroke-width="0.3" fill-rule="nonzero" transform="translate(37.500000, 28.500000) rotate(15.000000) translate(-37.500000, -28.500000) "></path>
                <path d="M34,32 L37,32" id="Shape" stroke="#F0F0F0" stroke-width="0.3" fill-rule="nonzero" transform="translate(35.500000, 32.500000) rotate(30.000000) translate(-35.500000, -32.500000) "></path>
                <path d="M31,36 L34,36" id="Shape" stroke="#F0F0F0" stroke-width="0.3" fill-rule="nonzero" transform="translate(32.500000, 36.500000) rotate(45.000000) translate(-32.500000, -36.500000) "></path>
                <path d="M27,39 L31,39" id="Shape" stroke="#F0F0F0" stroke-width="1.5" fill-rule="nonzero" transform="translate(29.000000, 39.500000) rotate(60.000000) translate(-29.000000, -39.500000) "></path>
                <text id="-" font-family="Helvetica" font-size="11.25" font-weight="normal">
                    <tspan x="2" y="44">-</tspan>
                </text>
                <text id="+" font-family="Helvetica" font-size="8.75" font-weight="normal">
                    <tspan x="34" y="43">+</tspan>
                </text>
            </g>
            <text id="SCALE" font-family="InputSans-Regular, Input Sans" font-size="9" font-weight="normal" fill="#F0F0F0">
                <tspan x="7.86363636" y="308">SCALE</tspan>
            </text>
            <path d="M36.4309341,322.011703 C36.4309341,320.387243 35.1076602,319.059998 33.4931908,319.059998 L10.9377433,319.059998 C9.32317109,319.059998 8,320.387243 8,322.011703 L8,344.70924 C8,346.3337 9.32317109,347.665022 10.9377433,347.665022 L33.4931908,347.665022 C35.1076602,347.665022 36.4309341,346.3337 36.4309341,344.70924 L36.4309341,322.011703 Z" id="path34043" fill="#C1C1C1" fill-rule="nonzero"></path>
            <g id="Group-2" transform="translate(3.000000, 2.000000)">
                <circle id="Oval-2" fill="#D8D8D8" cx="5.5" cy="5.5" r="5.5"></circle>
                <path d="M6.76241986,7.1655333 C6.50140383,7.38592566 6.00666637,6.66802717 5.6762133,6.72114719 C5.34576038,6.77426738 5.07594559,7.61506756 4.76460035,7.48668193 C4.4532551,7.35829629 4.79493914,6.54713211 4.58612637,6.27164158 C4.3773136,5.99615104 3.55250966,6.16992662 3.50218048,5.82114863 C3.45185129,5.47237063 4.28827292,5.37910493 4.40991307,5.05049422 C4.53155306,4.7218835 3.9765641,4.05485906 4.23758013,3.8344667 C4.49859617,3.61407434 4.99333363,4.33197283 5.3237867,4.27885281 C5.65423962,4.22573262 5.92405441,3.38493244 6.23539965,3.51331807 C6.5467449,3.64170371 6.20506086,4.45286789 6.41387363,4.72835842 C6.6226864,5.00384896 7.44749031,4.83007338 7.49781952,5.17885137 C7.54814873,5.52762937 6.71172708,5.62089507 6.59008693,5.94950578 C6.46844694,6.2781165 7.0234359,6.94514094 6.76241986,7.1655333 Z" id="path7856" stroke="#000000" stroke-width="0.5" fill="#000000" fill-rule="nonzero" transform="translate(5.500000, 5.500000) rotate(-21.258598) translate(-5.500000, -5.500000) "></path>
            </g>
            <g id="Group-2" transform="translate(31.500000, 364.000000)">
                <circle id="Oval-2" fill="#D8D8D8" cx="5.5" cy="5.5" r="5.5"></circle>
                <path d="M6.76241986,7.1655333 C6.50140383,7.38592566 6.00666637,6.66802717 5.6762133,6.72114719 C5.34576038,6.77426738 5.07594559,7.61506756 4.76460035,7.48668193 C4.4532551,7.35829629 4.79493914,6.54713211 4.58612637,6.27164158 C4.3773136,5.99615104 3.55250966,6.16992662 3.50218048,5.82114863 C3.45185129,5.47237063 4.28827292,5.37910493 4.40991307,5.05049422 C4.53155306,4.7218835 3.9765641,4.05485906 4.23758013,3.8344667 C4.49859617,3.61407434 4.99333363,4.33197283 5.3237867,4.27885281 C5.65423962,4.22573262 5.92405441,3.38493244 6.23539965,3.51331807 C6.5467449,3.64170371 6.20506086,4.45286789 6.41387363,4.72835842 C6.6226864,5.00384896 7.44749031,4.83007338 7.49781952,5.17885137 C7.54814873,5.52762937 6.71172708,5.62089507 6.59008693,5.94950578 C6.46844694,6.2781165 7.0234359,6.94514094 6.76241986,7.1655333 Z" id="path7856" stroke="#000000" stroke-width="0.5" fill="#000000" fill-rule="nonzero" transform="translate(5.500000, 5.500000) rotate(-21.258598) translate(-5.500000, -5.500000) "></path>
            </g>
        </g>
    </g>
</svg>