<?xml version="1.0" encoding="UTF-8" standalone="no"?>
<svg
   xmlns:dc="http://purl.org/dc/elements/1.1/"
   xmlns:cc="http://creativecommons.org/ns#"
   xmlns:rdf="http://www.w3.org/1999/02/22-rdf-syntax-ns#"
   xmlns:svg="http://www.w3.org/2000/svg"
   xmlns="http://www.w3.org/2000/svg"
   xmlns:sodipodi="http://sodipodi.sourceforge.net/DTD/sodipodi-0.dtd"
   xmlns:inkscape="http://www.inkscape.org/namespaces/inkscape"
   width="45px"
   height="380px"
   viewBox="0 0 45 380"
   version="1.1"
   id="svg139"
   sodipodi:docname="svg_render_tmp.svg"
   inkscape:version="0.92.2 5c3e80d, 2017-08-06">
  <metadata
     id="metadata143">
    <rdf:RDF>
      <cc:Work
         rdf:about="">
        <dc:format>image/svg+xml</dc:format>
        <dc:type
           rdf:resource="http://purl.org/dc/dcmitype/StillImage" />
      </cc:Work>
    </rdf:RDF>
  </metadata>
  <sodipodi:namedview
     pagecolor="#ffffff"
     bordercolor="#666666"
     borderopacity="1"
     objecttolerance="10"
     gridtolerance="10"
     guidetolerance="10"
     inkscape:pageopacity="0"
     inkscape:pageshadow="2"
     inkscape:window-width="582"
     inkscape:window-height="449"
     id="namedview141"
     showgrid="false"
     inkscape:zoom="0.62105263"
     inkscape:cx="22.5"
     inkscape:cy="190"
     inkscape:window-x="0"
     inkscape:window-y="0"
     inkscape:window-maximized="0"
     inkscape:current-layer="svg139" />
  <!-- Generator: Sketch 48.2 (47327) - http://www.bohemiancoding.com/sketch -->
  <title
     id="title2">ALV-src</title>
  <desc
     id="desc4">Created with Sketch.</desc>
  <defs
     id="defs11">
    <linearGradient
       x1="53.536748"
       y1="0.47300875"
       x2="53.536748"
       y2="65.903056"
       id="linearGradient-1"
       gradientTransform="scale(0.50539876,1.9786357)"
       gradientUnits="userSpaceOnUse">
      <stop
         stop-color="#4D4E4F"
         stop-opacity="0.710765165"
         offset="0%"
         id="stop6" />
      <stop
         stop-color="#000000"
         stop-opacity="0.431008732"
         offset="100%"
         id="stop8" />
    </linearGradient>
  </defs>
  <g
     style="fill:none;fill-rule:evenodd;stroke:none;stroke-width:1"
     id="ALV-src">
    <path
       style="fill:#d9d9d9"
       d="M 0,0 H 45 V 380 H 0 Z"
       id="Rectangle-2" />
    <path
       style="fill:#c1c1c1"
       inkscape:connector-curvature="0"
       id="Rectangle"
       d="m 5,0 h 20 c 11.045695,0 20,8.954305 20,20 v 353 c 0,2.76142 -2.238576,5 -5,5 H 20 C 8.954305,378 0,369.0457 0,358 V 5 C 0,2.2385763 2.2385763,0 5,0 Z" />
    <path
       style="fill:#010101"
       inkscape:connector-curvature="0"
       id="path15"
       d="m 6.5,1 h 17 c 11.045695,0 20,8.954305 20,20 v 350 c 0,2.76142 -2.238576,5 -5,5 h -17 c -11.045695,0 -20,-8.9543 -20,-20 V 6 c 0,-2.7614237 2.2385763,-5 5,-5 z" />
    <path
       inkscape:connector-curvature="0"
       style="mix-blend-mode:lighten;fill:url(#linearGradient-1)"
       id="Screen-Shadow"
       d="M 10.523274,1.0229817 43.591538,130.39814 V 27.980797 c 0,0 0,-6.457011 0,-7.769875 0,-8.428657 -7.201254,-16.8071081 -15.447135,-18.8401186 C 25.321641,0.67485523 10.523274,1.0229817 10.523274,1.0229817 Z" />
    <g
       aria-label="OFFSET"
       style="font-weight:normal;font-size:9px;font-family:InputSans-Regular, 'Input Sans';fill:#f0f0f0"
       id="OFFSET">
      <path
         d="m 8.2727273,242.08182 q -1.2190909,0 -1.8409091,-0.58909 -0.6136364,-0.58909 -0.6136364,-1.75909 v -1.98 q 0,-1.18637 0.6218182,-1.78364 0.6218182,-0.59727 1.8409091,-0.59727 1.2190909,0 1.8327269,0.59727 0.613637,0.59727 0.613637,1.78364 v 1.98 q 0,1.17 -0.621818,1.75909 -0.6136368,0.58909 -1.8327277,0.58909 z m 0,-0.73637 q 0.8836363,0 1.26,-0.36818 0.3763636,-0.37636 0.3763636,-1.24363 v -1.98 q 0,-0.88364 -0.3763636,-1.26 -0.3763637,-0.38455 -1.26,-0.38455 -0.8836364,0 -1.26,0.38455 -0.3763637,0.37636 -0.3763637,1.26 v 1.98 q 0,0.86727 0.3763637,1.24363 0.3763636,0.36818 1.26,0.36818 z"
         style=""
         id="path216" />
      <path
         d="m 12.357244,242 v -6.54545 h 4.254546 v 0.73636 h -3.436364 v 2.53636 h 2.863636 v 0.73637 H 13.175426 V 242 Z"
         style=""
         id="path218" />
      <path
         d="m 18.087713,242 v -6.54545 h 4.254546 v 0.73636 h -3.436364 v 2.53636 h 2.863636 v 0.73637 H 18.905895 V 242 Z"
         style=""
         id="path220" />
      <path
         d="m 26.354545,242.04909 q -0.94909,0 -1.611818,-0.34364 -0.654545,-0.34363 -1.006363,-1.30909 l 0.760909,-0.30272 q 0.253636,0.69545 0.670909,0.95727 0.425454,0.26182 1.235454,0.26182 0.711819,0 1.153637,-0.26182 0.441818,-0.26182 0.441818,-0.86727 0,-0.55637 -0.392727,-0.77728 -0.384546,-0.22909 -1.390909,-0.38454 -1.26,-0.18818 -1.767273,-0.58909 -0.499091,-0.40091 -0.499091,-1.21091 0,-0.83455 0.605454,-1.31727 0.605455,-0.48273 1.652728,-0.48273 0.949091,0 1.562727,0.32727 0.613636,0.31909 0.924545,1.16182 l -0.760909,0.30273 q -0.212727,-0.58909 -0.662727,-0.81819 -0.45,-0.23727 -1.112727,-0.23727 -0.621818,0 -1.006364,0.22091 -0.376363,0.22091 -0.376363,0.76909 0,0.55637 0.40909,0.76909 0.409091,0.21273 1.472728,0.36818 1.194545,0.18 1.677272,0.57273 0.482728,0.39273 0.482728,1.18637 0,0.93272 -0.662728,1.47272 -0.654545,0.53182 -1.8,0.53182 z"
         style=""
         id="path222" />
      <path
         d="m 30.357244,242 v -6.54545 h 4.254546 v 0.73636 h -3.436364 v 1.88182 h 3.027273 v 0.73636 h -3.027273 v 2.45455 H 34.61179 V 242 Z"
         style=""
         id="path224" />
      <path
         d="m 37.724077,242 v -5.80909 h -2.045455 v -0.73636 h 4.909091 v 0.73636 H 38.542259 V 242 Z"
         style=""
         id="path226" />
    </g>
    <g
       style="fill:#efefef"
       transform="translate(2,254)"
       id="knobguide">
      <path
         style="fill-rule:nonzero;stroke:#f0f0f0;stroke-width:1.5"
         inkscape:connector-curvature="0"
         transform="rotate(120,11,39.5)"
         id="Shape"
         d="m 9,39 h 4" />
      <path
         style="fill-rule:nonzero;stroke:#f0f0f0;stroke-width:0.30000001"
         inkscape:connector-curvature="0"
         transform="rotate(135,7.5,35.5)"
         id="path22"
         d="M 6,35 H 9" />
      <path
         style="fill-rule:nonzero;stroke:#f0f0f0;stroke-width:0.30000001"
         inkscape:connector-curvature="0"
         transform="rotate(150,4.5,32.5)"
         id="path24"
         d="M 3,32 H 6" />
      <path
         style="fill-rule:nonzero;stroke:#f0f0f0;stroke-width:0.30000001"
         inkscape:connector-curvature="0"
         transform="rotate(165,3.5,27.5)"
         id="path26"
         d="M 2,27 H 5" />
      <path
         style="fill-rule:nonzero;stroke:#f0f0f0;stroke-width:0.30000001"
         inkscape:connector-curvature="0"
         transform="rotate(-180,2.5,23.5)"
         id="path28"
         d="M 1,23 H 4" />
      <path
         style="fill-rule:nonzero;stroke:#f0f0f0;stroke-width:1.5"
         inkscape:connector-curvature="0"
         transform="rotate(-165,3,18.5)"
         id="path30"
         d="M 1,18 H 5" />
      <path
         style="fill-rule:nonzero;stroke:#f0f0f0;stroke-width:0.30000001"
         inkscape:connector-curvature="0"
         transform="rotate(-150,5.5,14.5)"
         id="path32"
         d="M 4,14 H 7" />
      <path
         style="fill-rule:nonzero;stroke:#f0f0f0;stroke-width:0.30000001"
         inkscape:connector-curvature="0"
         transform="rotate(-135,8.5,10.5)"
         id="path34"
         d="m 7,10 h 3" />
      <path
         style="fill-rule:nonzero;stroke:#f0f0f0;stroke-width:0.30000001"
         inkscape:connector-curvature="0"
         transform="rotate(-120,12.5,7.5)"
         id="path36"
         d="m 11,7 h 3" />
      <path
         style="fill-rule:nonzero;stroke:#f0f0f0;stroke-width:0.30000001"
         inkscape:connector-curvature="0"
         transform="rotate(-105,16.5,6.5)"
         id="path38"
         d="m 15,6 h 3" />
      <g
         aria-label="0"
         style="font-weight:normal;font-size:8.125px;font-family:Helvetica"
         id="0">
        <path
           d="m 20.938507,2.3188477 q 1.102905,0 1.594849,0.9085083 0.380859,0.7022094 0.380859,1.9241333 0,1.1584472 -0.345154,1.9161987 -0.499878,1.0870361 -1.634521,1.0870361 -1.02356,0 -1.523438,-0.8886719 -0.416565,-0.7418823 -0.416565,-1.9915771 0,-0.9680176 0.249939,-1.6622925 0.46814,-1.2933349 1.694031,-1.2933349 z m -0.0079,5.1852417 q 0.555419,0 0.884704,-0.4919434 0.329285,-0.4919434 0.329285,-1.8328857 0,-0.9680176 -0.238037,-1.5908814 -0.238037,-0.626831 -0.924378,-0.626831 -0.630798,0 -0.924377,0.5950927 -0.289612,0.5911255 -0.289612,1.7456055 0,0.8688354 0.186462,1.3964844 0.285645,0.8053589 0.975953,0.8053589 z"
           style=""
           id="path229" />
      </g>
      <path
         style="fill-rule:nonzero;stroke:#f0f0f0;stroke-width:0.30000001"
         inkscape:connector-curvature="0"
         transform="rotate(-75,25.5,6.5)"
         id="path43"
         d="m 24,6 h 3" />
      <path
         style="fill-rule:nonzero;stroke:#f0f0f0;stroke-width:0.30000001"
         inkscape:connector-curvature="0"
         transform="rotate(-60,29.5,8.5)"
         id="path45"
         d="m 28,8 h 3" />
      <path
         style="fill-rule:nonzero;stroke:#f0f0f0;stroke-width:0.30000001"
         inkscape:connector-curvature="0"
         transform="rotate(-45,33.5,11.5)"
         id="path47"
         d="m 32,11 h 3" />
      <path
         style="fill-rule:nonzero;stroke:#f0f0f0;stroke-width:0.30000001"
         inkscape:connector-curvature="0"
         transform="rotate(-30,36.5,15.5)"
         id="path49"
         d="m 35,15 h 3" />
      <path
         style="fill-rule:nonzero;stroke:#f0f0f0;stroke-width:1.5"
         inkscape:connector-curvature="0"
         transform="rotate(-15,38,19.5)"
         id="path51"
         d="m 36,19 h 4" />
      <path
         style="fill-rule:nonzero;stroke:#f0f0f0;stroke-width:0.30000001"
         inkscape:connector-curvature="0"
         id="path53"
         d="m 37,24 h 3" />
      <path
         style="fill-rule:nonzero;stroke:#f0f0f0;stroke-width:0.30000001"
         inkscape:connector-curvature="0"
         transform="rotate(15,37.5,28.5)"
         id="path55"
         d="m 36,28 h 3" />
      <path
         style="fill-rule:nonzero;stroke:#f0f0f0;stroke-width:0.30000001"
         inkscape:connector-curvature="0"
         transform="rotate(30,35.5,32.5)"
         id="path57"
         d="m 34,32 h 3" />
      <path
         style="fill-rule:nonzero;stroke:#f0f0f0;stroke-width:0.30000001"
         inkscape:connector-curvature="0"
         transform="rotate(45,32.5,36.5)"
         id="path59"
         d="m 31,36 h 3" />
      <path
         style="fill-rule:nonzero;stroke:#f0f0f0;stroke-width:1.5"
         inkscape:connector-curvature="0"
         transform="rotate(60,29,39.5)"
         id="path61"
         d="m 27,39 h 4" />
      <g
         aria-label="-"
         style="font-weight:normal;font-size:11.25px;font-family:Helvetica"
         id="-">
        <path
           d="m 2.4669189,40.358032 h 2.7575684 v 1.016236 H 2.4669189 Z"
           style=""
           id="path232" />
      </g>
      <g
         aria-label="+"
         style="font-weight:normal;font-size:8.75px;font-family:Helvetica"
         id="+">
        <path
           d="m 34.393066,41.128662 v -0.717773 h 1.862793 v -1.875611 h 0.730591 v 1.875611 h 1.862793 v 0.717773 H 36.98645 V 43 h -0.730591 v -1.871338 z"
           style=""
           id="path235" />
      </g>
    </g>
    <g
       style="fill:#efefef"
       transform="translate(2,189)"
       id="g122">
      <path
         style="fill-rule:nonzero;stroke:#f0f0f0;stroke-width:1.5"
         inkscape:connector-curvature="0"
         transform="rotate(120,11,39.5)"
         id="path70"
         d="m 9,39 h 4" />
      <path
         style="fill-rule:nonzero;stroke:#f0f0f0;stroke-width:0.30000001"
         inkscape:connector-curvature="0"
         transform="rotate(135,7.5,35.5)"
         id="path72"
         d="M 6,35 H 9" />
      <path
         style="fill-rule:nonzero;stroke:#f0f0f0;stroke-width:0.30000001"
         inkscape:connector-curvature="0"
         transform="rotate(150,4.5,32.5)"
         id="path74"
         d="M 3,32 H 6" />
      <path
         style="fill-rule:nonzero;stroke:#f0f0f0;stroke-width:0.30000001"
         inkscape:connector-curvature="0"
         transform="rotate(165,3.5,27.5)"
         id="path76"
         d="M 2,27 H 5" />
      <path
         style="fill-rule:nonzero;stroke:#f0f0f0;stroke-width:0.30000001"
         inkscape:connector-curvature="0"
         transform="rotate(-180,2.5,23.5)"
         id="path78"
         d="M 1,23 H 4" />
      <path
         style="fill-rule:nonzero;stroke:#f0f0f0;stroke-width:1.5"
         inkscape:connector-curvature="0"
         transform="rotate(-165,3,18.5)"
         id="path80"
         d="M 1,18 H 5" />
      <path
         style="fill-rule:nonzero;stroke:#f0f0f0;stroke-width:0.30000001"
         inkscape:connector-curvature="0"
         transform="rotate(-150,5.5,14.5)"
         id="path82"
         d="M 4,14 H 7" />
      <path
         style="fill-rule:nonzero;stroke:#f0f0f0;stroke-width:0.30000001"
         inkscape:connector-curvature="0"
         transform="rotate(-135,8.5,10.5)"
         id="path84"
         d="m 7,10 h 3" />
      <path
         style="fill-rule:nonzero;stroke:#f0f0f0;stroke-width:0.30000001"
         inkscape:connector-curvature="0"
         transform="rotate(-120,12.5,7.5)"
         id="path86"
         d="m 11,7 h 3" />
      <path
         style="fill-rule:nonzero;stroke:#f0f0f0;stroke-width:0.30000001"
         inkscape:connector-curvature="0"
         transform="rotate(-105,16.5,6.5)"
         id="path88"
         d="m 15,6 h 3" />
      <g
         aria-label="0"
         style="font-weight:normal;font-size:8.125px;font-family:Helvetica"
         id="text92">
        <path
           d="m 20.938507,2.3188477 q 1.102905,0 1.594849,0.9085083 0.380859,0.7022094 0.380859,1.9241333 0,1.1584472 -0.345154,1.9161987 -0.499878,1.0870361 -1.634521,1.0870361 -1.02356,0 -1.523438,-0.8886719 -0.416565,-0.7418823 -0.416565,-1.9915771 0,-0.9680176 0.249939,-1.6622925 0.46814,-1.2933349 1.694031,-1.2933349 z m -0.0079,5.1852417 q 0.555419,0 0.884704,-0.4919434 0.329285,-0.4919434 0.329285,-1.8328857 0,-0.9680176 -0.238037,-1.5908814 -0.238037,-0.626831 -0.924378,-0.626831 -0.630798,0 -0.924377,0.5950927 -0.289612,0.5911255 -0.289612,1.7456055 0,0.8688354 0.186462,1.3964844 0.285645,0.8053589 0.975953,0.8053589 z"
           style=""
           id="path238" />
      </g>
      <path
         style="fill-rule:nonzero;stroke:#f0f0f0;stroke-width:0.30000001"
         inkscape:connector-curvature="0"
         transform="rotate(-75,25.5,6.5)"
         id="path94"
         d="m 24,6 h 3" />
      <path
         style="fill-rule:nonzero;stroke:#f0f0f0;stroke-width:0.30000001"
         inkscape:connector-curvature="0"
         transform="rotate(-60,29.5,8.5)"
         id="path96"
         d="m 28,8 h 3" />
      <path
         style="fill-rule:nonzero;stroke:#f0f0f0;stroke-width:0.30000001"
         inkscape:connector-curvature="0"
         transform="rotate(-45,33.5,11.5)"
         id="path98"
         d="m 32,11 h 3" />
      <path
         style="fill-rule:nonzero;stroke:#f0f0f0;stroke-width:0.30000001"
         inkscape:connector-curvature="0"
         transform="rotate(-30,36.5,15.5)"
         id="path100"
         d="m 35,15 h 3" />
      <path
         style="fill-rule:nonzero;stroke:#f0f0f0;stroke-width:1.5"
         inkscape:connector-curvature="0"
         transform="rotate(-15,38,19.5)"
         id="path102"
         d="m 36,19 h 4" />
      <path
         style="fill-rule:nonzero;stroke:#f0f0f0;stroke-width:0.30000001"
         inkscape:connector-curvature="0"
         id="path104"
         d="m 37,24 h 3" />
      <path
         style="fill-rule:nonzero;stroke:#f0f0f0;stroke-width:0.30000001"
         inkscape:connector-curvature="0"
         transform="rotate(15,37.5,28.5)"
         id="path106"
         d="m 36,28 h 3" />
      <path
         style="fill-rule:nonzero;stroke:#f0f0f0;stroke-width:0.30000001"
         inkscape:connector-curvature="0"
         transform="rotate(30,35.5,32.5)"
         id="path108"
         d="m 34,32 h 3" />
      <path
         style="fill-rule:nonzero;stroke:#f0f0f0;stroke-width:0.30000001"
         inkscape:connector-curvature="0"
         transform="rotate(45,32.5,36.5)"
         id="path110"
         d="m 31,36 h 3" />
      <path
         style="fill-rule:nonzero;stroke:#f0f0f0;stroke-width:1.5"
         inkscape:connector-curvature="0"
         transform="rotate(60,29,39.5)"
         id="path112"
         d="m 27,39 h 4" />
      <g
         aria-label="-"
         style="font-weight:normal;font-size:11.25px;font-family:Helvetica"
         id="text116">
        <path
           d="m 2.4669189,40.358032 h 2.7575684 v 1.016236 H 2.4669189 Z"
           style=""
           id="path241" />
      </g>
      <g
         aria-label="+"
         style="font-weight:normal;font-size:8.75px;font-family:Helvetica"
         id="text120">
        <path
           d="m 34.393066,41.128662 v -0.717773 h 1.862793 v -1.875611 h 0.730591 v 1.875611 h 1.862793 v 0.717773 H 36.98645 V 43 h -0.730591 v -1.871338 z"
           style=""
           id="path244" />
      </g>
    </g>
    <g
       aria-label="SCALE"
       style="font-weight:normal;font-size:9px;font-family:InputSans-Regular, 'Input Sans';fill:#f0f0f0"
       id="SCALE">
      <path
         d="m 11.218182,308.04909 q -0.949091,0 -1.6118182,-0.34364 -0.6545455,-0.34363 -1.0063637,-1.30909 l 0.7609091,-0.30272 q 0.2536364,0.69545 0.6709088,0.95727 0.425455,0.26182 1.235455,0.26182 0.711818,0 1.153636,-0.26182 0.441818,-0.26182 0.441818,-0.86727 0,-0.55637 -0.392727,-0.77728 -0.384545,-0.22909 -1.390909,-0.38454 -1.26,-0.18818 -1.7672727,-0.58909 -0.4990909,-0.40091 -0.4990909,-1.21091 0,-0.83455 0.6054545,-1.31727 0.6054541,-0.48273 1.6527271,-0.48273 0.949091,0 1.562727,0.32727 0.613637,0.31909 0.924546,1.16182 l -0.760909,0.30273 q -0.212727,-0.58909 -0.662727,-0.81819 -0.45,-0.23727 -1.112728,-0.23727 -0.621818,0 -1.006363,0.22091 -0.376364,0.22091 -0.376364,0.76909 0,0.55637 0.409091,0.76909 0.409091,0.21273 1.472727,0.36818 1.194546,0.18 1.677273,0.57273 0.482727,0.39273 0.482727,1.18637 0,0.93272 -0.662727,1.47272 -0.654546,0.53182 -1.8,0.53182 z"
         style=""
         id="path247" />
      <path
         d="m 17.757244,308.08182 q -1.235454,0 -1.89,-0.59727 -0.646363,-0.60546 -0.646363,-1.75091 v -1.98 q 0,-1.16182 0.654545,-1.76728 0.654546,-0.61363 1.89,-0.61363 1.17,0 1.816364,0.54 0.654545,0.53182 0.711818,1.67727 l -0.818182,0.0818 q -0.07364,-0.9 -0.474545,-1.22727 -0.400909,-0.33546 -1.243637,-0.33546 -0.916363,0 -1.317272,0.38455 -0.400909,0.38454 -0.400909,1.26 v 1.98 q 0,0.85909 0.400909,1.23545 0.400909,0.37636 1.317272,0.37636 0.9,0 1.30091,-0.35181 0.40909,-0.36 0.417272,-1.17819 l 0.818182,0.0818 q 0,1.06364 -0.654545,1.62818 -0.646364,0.55637 -1.881819,0.55637 z"
         style=""
         id="path249" />
      <path
         d="m 25.34358,305.38182 -1.137273,-3.10909 -1.145455,3.10909 z M 26.300852,308 25.61358,306.11818 H 22.790852 L 22.10358,308 h -0.834546 l 2.52,-6.54545 h 0.859091 l 2.52,6.54545 z"
         style=""
         id="path251" />
      <path
         d="m 28.299006,308 v -6.54545 h 0.818182 v 5.80909 h 2.945454 V 308 Z"
         style=""
         id="path253" />
      <path
         d="m 33.203303,308 v -6.54545 h 4.254545 v 0.73636 h -3.436363 v 1.88182 h 3.027272 v 0.73636 h -3.027272 v 2.45455 h 3.436363 V 308 Z"
         style=""
         id="path255" />
    </g>
    <path
       style="fill:#c1c1c1;fill-rule:nonzero"
       inkscape:connector-curvature="0"
       id="path34043"
       d="m 36.430934,322.0117 c 0,-1.62446 -1.323274,-2.9517 -2.937743,-2.9517 H 10.937743 C 9.3231711,319.06 8,320.38724 8,322.0117 v 22.69754 c 0,1.62446 1.3231711,2.95578 2.937743,2.95578 h 22.555448 c 1.614469,0 2.937743,-1.33132 2.937743,-2.95578 z" />
    <g
       transform="translate(3,2)"
       id="Group-2">
      <path
         style="fill:#d8d8d8"
         d="M 11,5.5 A 5.5,5.5 0 0 1 5.5,11 5.5,5.5 0 0 1 0,5.5 5.5,5.5 0 0 1 5.5,0 5.5,5.5 0 0 1 11,5.5 Z"
         id="Oval-2" />
      <path
         style="fill:#000000;fill-rule:nonzero;stroke:#000000;stroke-width:0.5"
         inkscape:connector-curvature="0"
         transform="rotate(-21.258598,5.5,5.5)"
         id="path7856"
         d="M 6.7624199,7.1655333 C 6.5014038,7.3859257 6.0066664,6.6680272 5.6762133,6.7211472 5.3457604,6.7742674 5.0759456,7.6150676 4.7646003,7.4866819 4.4532551,7.3582963 4.7949391,6.5471321 4.5861264,6.2716416 4.3773136,5.996151 3.5525097,6.1699266 3.5021805,5.8211486 3.4518513,5.4723706 4.2882729,5.3791049 4.4099131,5.0504942 4.5315531,4.7218835 3.9765641,4.0548591 4.2375801,3.8344667 4.4985962,3.6140743 4.9933336,4.3319728 5.3237867,4.2788528 5.6542396,4.2257326 5.9240544,3.3849324 6.2353996,3.5133181 c 0.3113453,0.1283856 -0.030339,0.9395498 0.178474,1.2150403 0.2088128,0.2754906 1.0336167,0.101715 1.0839459,0.450493 0.050329,0.348778 -0.7860924,0.4420437 -0.9077326,0.7706544 -0.12164,0.3286107 0.433349,0.9956351 0.172333,1.2160275 z" />
    </g>
    <g
       transform="translate(31.5,364)"
       id="g135">
      <path
         style="fill:#d8d8d8"
         d="M 11,5.5 A 5.5,5.5 0 0 1 5.5,11 5.5,5.5 0 0 1 0,5.5 5.5,5.5 0 0 1 5.5,0 5.5,5.5 0 0 1 11,5.5 Z"
         id="circle131" />
      <path
         style="fill:#000000;fill-rule:nonzero;stroke:#000000;stroke-width:0.5"
         inkscape:connector-curvature="0"
         transform="rotate(-21.258598,5.5,5.5)"
         id="path133"
         d="M 6.7624199,7.1655333 C 6.5014038,7.3859257 6.0066664,6.6680272 5.6762133,6.7211472 5.3457604,6.7742674 5.0759456,7.6150676 4.7646003,7.4866819 4.4532551,7.3582963 4.7949391,6.5471321 4.5861264,6.2716416 4.3773136,5.996151 3.5525097,6.1699266 3.5021805,5.8211486 3.4518513,5.4723706 4.2882729,5.3791049 4.4099131,5.0504942 4.5315531,4.7218835 3.9765641,4.0548591 4.2375801,3.8344667 4.4985962,3.6140743 4.9933336,4.3319728 5.3237867,4.2788528 5.6542396,4.2257326 5.9240544,3.3849324 6.2353996,3.5133181 c 0.3113453,0.1283856 -0.030339,0.9395498 0.178474,1.2150403 0.2088128,0.2754906 1.0336167,0.101715 1.0839459,0.450493 0.050329,0.348778 -0.7860924,0.4420437 -0.9077326,0.7706544 -0.12164,0.3286107 0.433349,0.9956351 0.172333,1.2160275 z" />
    </g>
  </g>
</svg>
