<?xml version="1.0" encoding="UTF-8"?>
<svg width="180px" height="381px" viewBox="0 0 180 381" version="1.1" xmlns="http://www.w3.org/2000/svg" xmlns:xlink="http://www.w3.org/1999/xlink">
    <!-- Generator: Sketch 53.1 (72631) - https://sketchapp.com -->
    <title>Flow-src</title>
    <desc>Created with Sketch.</desc>
    <defs>
        <linearGradient x1="50%" y1="0%" x2="50%" y2="100%" id="linearGradient-1">
            <stop stop-color="#4D4E4F" stop-opacity="0.710765165" offset="0%"></stop>
            <stop stop-color="#000000" stop-opacity="0.431008732" offset="100%"></stop>
        </linearGradient>
    </defs>
    <g id="Flow" stroke="none" stroke-width="1" fill="none" fill-rule="evenodd">
        <g id="Flow-src">
            <rect id="Rectangle-2" fill="#D9D9D9" x="0" y="0.5" width="180" height="380"></rect>
            <path d="M5,0.5 L160,0.5 C171.045695,0.5 180,9.454305 180,20.5 L180,373.5 C180,376.261424 177.761424,378.5 175,378.5 L20,378.5 C8.954305,378.5 1.3527075e-15,369.545695 0,358.5 L0,5.5 C-3.38176876e-16,2.73857625 2.23857625,0.5 5,0.5 Z" id="Rectangle" fill="#C1C1C1"></path>
            <path d="M6.5,1.5 L157.5,1.5 C168.545695,1.5 177.5,10.454305 177.5,21.5 L177.5,371.5 C177.5,374.261424 175.261424,376.5 172.5,376.5 L21.5,376.5 C10.454305,376.5 1.5,367.545695 1.5,356.5 L1.5,6.5 C1.5,3.73857625 3.73857625,1.5 6.5,1.5 Z" id="Rectangle" fill="#010101"></path>
            <text id="Flow" font-family="InputSans-Regular, Input Sans" font-size="16" font-weight="normal" fill="#F0F0F0">
                <tspan x="18.1363636" y="22">Flow</tspan>
            </text>
            <path d="M100.82452,1.3093103 L177.761576,193.476851 L177.761576,27.9193035 C177.761576,27.9193035 177.761576,21.4622934 177.761576,20.1494286 C177.761576,11.7207718 170.560322,3.34232077 162.314441,1.3093103 C159.491679,0.613362124 100.82452,1.3093103 100.82452,1.3093103 Z" id="Screen-Shadow" fill="url(#linearGradient-1)" style="mix-blend-mode: lighten;"></path>
            <g id="screw_top" transform="translate(3.000000, 2.000000)">
                <circle id="Oval-2" fill="#D8D8D8" cx="5.5" cy="5.5" r="5.5"></circle>
                <path d="M6.76241986,7.1655333 C6.50140383,7.38592566 6.00666637,6.66802717 5.6762133,6.72114719 C5.34576038,6.77426738 5.07594559,7.61506756 4.76460035,7.48668193 C4.4532551,7.35829629 4.79493914,6.54713211 4.58612637,6.27164158 C4.3773136,5.99615104 3.55250966,6.16992662 3.50218048,5.82114863 C3.45185129,5.47237063 4.28827292,5.37910493 4.40991307,5.05049422 C4.53155306,4.7218835 3.9765641,4.05485906 4.23758013,3.8344667 C4.49859617,3.61407434 4.99333363,4.33197283 5.3237867,4.27885281 C5.65423962,4.22573262 5.92405441,3.38493244 6.23539965,3.51331807 C6.5467449,3.64170371 6.20506086,4.45286789 6.41387363,4.72835842 C6.6226864,5.00384896 7.44749031,4.83007338 7.49781952,5.17885137 C7.54814873,5.52762937 6.71172708,5.62089507 6.59008693,5.94950578 C6.46844694,6.2781165 7.0234359,6.94514094 6.76241986,7.1655333 Z" id="path7856" stroke="#000000" stroke-width="0.5" fill="#000000" fill-rule="nonzero" transform="translate(5.500000, 5.500000) rotate(-21.258598) translate(-5.500000, -5.500000) "></path>
            </g>
            <g id="screw_bot" transform="translate(164.000000, 364.500000)">
                <circle id="Oval-2" fill="#D8D8D8" cx="5.5" cy="5.5" r="5.5"></circle>
                <path d="M6.76241986,7.1655333 C6.50140383,7.38592566 6.00666637,6.66802717 5.6762133,6.72114719 C5.34576038,6.77426738 5.07594559,7.61506756 4.76460035,7.48668193 C4.4532551,7.35829629 4.79493914,6.54713211 4.58612637,6.27164158 C4.3773136,5.99615104 3.55250966,6.16992662 3.50218048,5.82114863 C3.45185129,5.47237063 4.28827292,5.37910493 4.40991307,5.05049422 C4.53155306,4.7218835 3.9765641,4.05485906 4.23758013,3.8344667 C4.49859617,3.61407434 4.99333363,4.33197283 5.3237867,4.27885281 C5.65423962,4.22573262 5.92405441,3.38493244 6.23539965,3.51331807 C6.5467449,3.64170371 6.20506086,4.45286789 6.41387363,4.72835842 C6.6226864,5.00384896 7.44749031,4.83007338 7.49781952,5.17885137 C7.54814873,5.52762937 6.71172708,5.62089507 6.59008693,5.94950578 C6.46844694,6.2781165 7.0234359,6.94514094 6.76241986,7.1655333 Z" id="path7856" stroke="#000000" stroke-width="0.5" fill="#000000" fill-rule="nonzero" transform="translate(5.500000, 5.500000) rotate(-21.258598) translate(-5.500000, -5.500000) "></path>
            </g>
            <rect id="Rectangle-6" fill="#D8D8D8" x="9" y="30" width="160" height="120"></rect>
        </g>
    </g>
</svg>