<?xml version="1.0" encoding="UTF-8" standalone="no"?>
<svg
   xmlns:dc="http://purl.org/dc/elements/1.1/"
   xmlns:cc="http://creativecommons.org/ns#"
   xmlns:rdf="http://www.w3.org/1999/02/22-rdf-syntax-ns#"
   xmlns:svg="http://www.w3.org/2000/svg"
   xmlns="http://www.w3.org/2000/svg"
   xmlns:sodipodi="http://sodipodi.sourceforge.net/DTD/sodipodi-0.dtd"
   xmlns:inkscape="http://www.inkscape.org/namespaces/inkscape"
   width="180px"
   height="381px"
   viewBox="0 0 180 381"
   version="1.1"
   id="svg33"
   sodipodi:docname="svg_render_tmp.svg"
   inkscape:version="0.92.2 5c3e80d, 2017-08-06">
  <metadata
     id="metadata37">
    <rdf:RDF>
      <cc:Work
         rdf:about="">
        <dc:format>image/svg+xml</dc:format>
        <dc:type
           rdf:resource="http://purl.org/dc/dcmitype/StillImage" />
      </cc:Work>
    </rdf:RDF>
  </metadata>
  <sodipodi:namedview
     pagecolor="#ffffff"
     bordercolor="#666666"
     borderopacity="1"
     objecttolerance="10"
     gridtolerance="10"
     guidetolerance="10"
     inkscape:pageopacity="0"
     inkscape:pageshadow="2"
     inkscape:window-width="582"
     inkscape:window-height="449"
     id="namedview35"
     showgrid="false"
     inkscape:zoom="0.61942257"
     inkscape:cx="90"
     inkscape:cy="190.5"
     inkscape:window-x="0"
     inkscape:window-y="0"
     inkscape:window-maximized="0"
     inkscape:current-layer="svg33" />
  <!-- Generator: Sketch 53.1 (72631) - https://sketchapp.com -->
  <title
     id="title2">Flow-src</title>
  <desc
     id="desc4">Created with Sketch.</desc>
  <defs
     id="defs11">
    <linearGradient
       x1="220.31847"
       y1="0.63223499"
       x2="220.31847"
       y2="122.32284"
       id="linearGradient-1"
       gradientTransform="scale(0.63223499,1.5816904)"
       gradientUnits="userSpaceOnUse">
      <stop
         stop-color="#4D4E4F"
         stop-opacity="0.710765165"
         offset="0%"
         id="stop6" />
      <stop
         stop-color="#000000"
         stop-opacity="0.431008732"
         offset="100%"
         id="stop8" />
    </linearGradient>
  </defs>
  <g
     style="fill:none;fill-rule:evenodd;stroke:none;stroke-width:1"
     id="Flow-src">
    <path
       style="fill:#d9d9d9"
       d="m 0,0.5 h 180 v 380 H 0 Z"
       id="Rectangle-2" />
    <path
       style="fill:#c1c1c1"
       inkscape:connector-curvature="0"
       id="Rectangle"
       d="m 5,0.5 h 155 c 11.04569,0 20,8.954305 20,20 v 353 c 0,2.76142 -2.23858,5 -5,5 H 20 c -11.045695,0 -20,-8.9543 -20,-20 V 5.5 c 0,-2.7614237 2.2385763,-5 5,-5 z" />
    <path
       style="fill:#010101"
       inkscape:connector-curvature="0"
       id="path15"
       d="m 6.5,1.5 h 151 c 11.04569,0 20,8.954305 20,20 v 350 c 0,2.76142 -2.23858,5 -5,5 h -151 c -11.045695,0 -20,-8.9543 -20,-20 V 6.5 c 0,-2.7614237 2.2385763,-5 5,-5 z" />
    <g
       aria-label="Flow"
       style="font-weight:normal;font-size:16px;font-family:InputSans-Regular, 'Input Sans';fill:#f0f0f0"
       id="Flow">
      <path
         d="M 19.590909,22 V 10.363636 h 7.563637 v 1.309091 h -6.109091 v 4.509091 h 5.090909 v 1.309091 H 21.045455 V 22 Z"
         style=""
         id="path54" />
      <path
         d="m 33.6475,22.072727 q -1.469091,0 -2.312727,-0.989091 -0.829091,-0.989091 -0.829091,-2.341818 v -8.378182 h 1.454546 v 8.392728 q 0,0.770909 0.421818,1.367272 0.436363,0.596364 1.309091,0.596364 0.218182,0 0.509091,-0.07273 0.290909,-0.07273 0.509091,-0.174546 l 0.290909,1.265455 q -0.276364,0.145454 -0.625455,0.247273 -0.349091,0.08727 -0.727273,0.08727 z"
         style=""
         id="path56" />
      <path
         d="m 40.696023,22.145455 q -1.629091,0 -2.632727,-0.8 -1.003637,-0.814546 -1.003637,-2.501819 v -2.356363 q 0,-1.701818 1.003637,-2.530909 1.018182,-0.829091 2.647273,-0.829091 1.62909,0 2.618181,0.829091 1.003637,0.829091 1.003637,2.530909 v 2.356363 q 0,1.687273 -1.003637,2.501819 -1.003636,0.8 -2.632727,0.8 z m 0,-1.309091 q 1.090909,0 1.629091,-0.465455 0.552727,-0.465454 0.552727,-1.527273 v -2.356363 q 0,-1.047273 -0.552727,-1.541818 -0.538182,-0.509091 -1.629091,-0.509091 -1.090909,0 -1.643636,0.509091 -0.538182,0.494545 -0.538182,1.541818 v 2.356363 q 0,1.061819 0.538182,1.527273 0.552727,0.465455 1.643636,0.465455 z"
         style=""
         id="path58" />
      <path
         d="M 54.272614,22 52.323523,16.094545 50.461705,22 h -1.658182 l -2.443636,-8.727273 h 1.469091 l 1.832727,7.316364 1.789091,-5.861818 h 1.716363 l 1.876364,5.716363 1.803636,-7.170909 H 58.31625 L 55.872614,22 Z"
         style=""
         id="path60" />
    </g>
    <path
       inkscape:connector-curvature="0"
       style="mix-blend-mode:lighten;fill:url(#linearGradient-1)"
       id="Screen-Shadow"
       d="M 100.82452,1.3093103 177.76158,193.47685 V 27.919304 c 0,0 0,-6.457011 0,-7.769875 0,-8.428657 -7.20126,-16.8071082 -15.44714,-18.8401187 -2.82276,-0.69594818 -61.48992,0 -61.48992,0 z" />
    <g
       transform="translate(3,2)"
       id="screw_top">
      <path
         style="fill:#d8d8d8"
         d="M 11,5.5 A 5.5,5.5 0 0 1 5.5,11 5.5,5.5 0 0 1 0,5.5 5.5,5.5 0 0 1 5.5,0 5.5,5.5 0 0 1 11,5.5 Z"
         id="Oval-2" />
      <path
         style="fill:#000000;fill-rule:nonzero;stroke:#000000;stroke-width:0.5"
         inkscape:connector-curvature="0"
         transform="rotate(-21.258598,5.5,5.5)"
         id="path7856"
         d="M 6.7624199,7.1655333 C 6.5014038,7.3859257 6.0066664,6.6680272 5.6762133,6.7211472 5.3457604,6.7742674 5.0759456,7.6150676 4.7646003,7.4866819 4.4532551,7.3582963 4.7949391,6.5471321 4.5861264,6.2716416 4.3773136,5.996151 3.5525097,6.1699266 3.5021805,5.8211486 3.4518513,5.4723706 4.2882729,5.3791049 4.4099131,5.0504942 4.5315531,4.7218835 3.9765641,4.0548591 4.2375801,3.8344667 4.4985962,3.6140743 4.9933336,4.3319728 5.3237867,4.2788528 5.6542396,4.2257326 5.9240544,3.3849324 6.2353996,3.5133181 c 0.3113453,0.1283856 -0.030339,0.9395498 0.178474,1.2150403 0.2088128,0.2754906 1.0336167,0.101715 1.0839459,0.450493 0.050329,0.348778 -0.7860924,0.4420437 -0.9077326,0.7706544 -0.12164,0.3286107 0.433349,0.9956351 0.172333,1.2160275 z" />
    </g>
    <g
       transform="translate(164,364.5)"
       id="screw_bot">
      <path
         style="fill:#d8d8d8"
         d="M 11,5.5 A 5.5,5.5 0 0 1 5.5,11 5.5,5.5 0 0 1 0,5.5 5.5,5.5 0 0 1 5.5,0 5.5,5.5 0 0 1 11,5.5 Z"
         id="circle24" />
      <path
         style="fill:#000000;fill-rule:nonzero;stroke:#000000;stroke-width:0.5"
         inkscape:connector-curvature="0"
         transform="rotate(-21.258598,5.5,5.5)"
         id="path26"
         d="M 6.7624199,7.1655333 C 6.5014038,7.3859257 6.0066664,6.6680272 5.6762133,6.7211472 5.3457604,6.7742674 5.0759456,7.6150676 4.7646003,7.4866819 4.4532551,7.3582963 4.7949391,6.5471321 4.5861264,6.2716416 4.3773136,5.996151 3.5525097,6.1699266 3.5021805,5.8211486 3.4518513,5.4723706 4.2882729,5.3791049 4.4099131,5.0504942 4.5315531,4.7218835 3.9765641,4.0548591 4.2375801,3.8344667 4.4985962,3.6140743 4.9933336,4.3319728 5.3237867,4.2788528 5.6542396,4.2257326 5.9240544,3.3849324 6.2353996,3.5133181 c 0.3113453,0.1283856 -0.030339,0.9395498 0.178474,1.2150403 0.2088128,0.2754906 1.0336167,0.101715 1.0839459,0.450493 0.050329,0.348778 -0.7860924,0.4420437 -0.9077326,0.7706544 -0.12164,0.3286107 0.433349,0.9956351 0.172333,1.2160275 z" />
    </g>
    <path
       style="fill:#d8d8d8"
       d="M 9,30 H 169 V 150 H 9 Z"
       id="Rectangle-6" />
  </g>
</svg>
