<?xml version="1.0" encoding="UTF-8" standalone="no"?>
<svg
   xmlns:dc="http://purl.org/dc/elements/1.1/"
   xmlns:cc="http://creativecommons.org/ns#"
   xmlns:rdf="http://www.w3.org/1999/02/22-rdf-syntax-ns#"
   xmlns:svg="http://www.w3.org/2000/svg"
   xmlns="http://www.w3.org/2000/svg"
   xmlns:sodipodi="http://sodipodi.sourceforge.net/DTD/sodipodi-0.dtd"
   xmlns:inkscape="http://www.inkscape.org/namespaces/inkscape"
   width="29px"
   height="29px"
   viewBox="0 0 29 29"
   version="1.1"
   id="svg16"
   sodipodi:docname="svg_render_tmp.svg"
   inkscape:version="0.92.2 5c3e80d, 2017-08-06">
  <metadata
     id="metadata20">
    <rdf:RDF>
      <cc:Work
         rdf:about="">
        <dc:format>image/svg+xml</dc:format>
        <dc:type
           rdf:resource="http://purl.org/dc/dcmitype/StillImage" />
      </cc:Work>
    </rdf:RDF>
  </metadata>
  <sodipodi:namedview
     pagecolor="#ffffff"
     bordercolor="#666666"
     borderopacity="1"
     objecttolerance="10"
     gridtolerance="10"
     guidetolerance="10"
     inkscape:pageopacity="0"
     inkscape:pageshadow="2"
     inkscape:window-width="582"
     inkscape:window-height="449"
     id="namedview18"
     showgrid="false"
     inkscape:zoom="8.137931"
     inkscape:cx="14.5"
     inkscape:cy="14.5"
     inkscape:window-x="0"
     inkscape:window-y="0"
     inkscape:window-maximized="0"
     inkscape:current-layer="svg16" />
  <!-- Generator: Sketch 48.2 (47327) - http://www.bohemiancoding.com/sketch -->
  <title
     id="title2">knob_31px-src</title>
  <desc
     id="desc4">Created with Sketch.</desc>
  <defs
     id="defs6" />
  <g
     style="fill:none;fill-rule:evenodd;stroke:none;stroke-width:1"
     id="g13"
     transform="translate(-1,-1)">
    <g
       style="fill-rule:nonzero"
       transform="translate(0.5,0.5)"
       id="Group">
      <path
         style="fill:#efefef"
         d="M 29.3,15 A 14.3,14.3 0 0 1 15,29.3 14.3,14.3 0 0 1 0.69999981,15 14.3,14.3 0 0 1 15,0.69999981 14.3,14.3 0 0 1 29.3,15 Z"
         id="Oval" />
      <path
         style="fill:#010101"
         d="M 27.725,15 A 12.725,12.725 0 0 1 15,27.725 12.725,12.725 0 0 1 2.2749996,15 12.725,12.725 0 0 1 15,2.2749996 12.725,12.725 0 0 1 27.725,15 Z"
         id="circle9" />
    </g>
    <path
       style="fill:#efefef"
       d="m 15,2 h 1 v 11 h -1 z"
       id="Rectangle-4" />
  </g>
</svg>
