<?xml version="1.0" encoding="UTF-8"?>
<svg width="35px" height="9px" viewBox="0 0 35 9" version="1.1" xmlns="http://www.w3.org/2000/svg" xmlns:xlink="http://www.w3.org/1999/xlink">
    <!-- Generator: Sketch 48.2 (47327) - http://www.bohemiancoding.com/sketch -->
    <title>slider_switch_2_35x9_0-src</title>
    <desc>Created with Sketch.</desc>
    <defs>
        <path d="M4,0 L31,0 C33.209139,-4.05812251e-16 35,1.790861 35,4 L35,5 C35,7.209139 33.209139,9 31,9 L28.330001,9 L4,9 C1.790861,9 2.705415e-16,7.209139 0,5 L0,4 C-2.705415e-16,1.790861 1.790861,4.05812251e-16 4,0 Z" id="path-1"></path>
        <rect id="path-2" x="2" y="2" width="18" height="5" rx="2"></rect>
        <rect id="path-3" x="2" y="2" width="18" height="5" rx="2"></rect>
        <rect id="path-4" x="2" y="2" width="18" height="5" rx="2"></rect>
    </defs>
    <g id="slider_switch_2_35x9_0-src" stroke="none" stroke-width="1" fill="none" fill-rule="evenodd">
        <g>
            <g id="Rectangle-3">
                <use fill="#313132" fill-rule="evenodd" xlink:href="#path-1"></use>
                <path stroke="#C1C1C1" stroke-width="1" d="M4,0.5 C2.06700338,0.5 0.5,2.06700338 0.5,4 L0.5,5 C0.5,6.93299662 2.06700338,8.5 4,8.5 L31,8.5 C32.9329966,8.5 34.5,6.93299662 34.5,5 L34.5,4 C34.5,2.06700338 32.9329966,0.5 31,0.5 L4,0.5 Z"></path>
            </g>
            <g id="Rectangle-5">
                <use fill="#DADADA" fill-rule="evenodd" xlink:href="#path-2"></use>
                <rect stroke="#313132" stroke-width="1" x="1.5" y="1.5" width="19" height="6" rx="2"></rect>
            </g>
            <g id="Rectangle-5">
                <use fill="#DADADA" fill-rule="evenodd" xlink:href="#path-3"></use>
                <rect stroke="#313132" stroke-width="1" x="1.5" y="1.5" width="19" height="6" rx="2"></rect>
            </g>
            <g id="Rectangle-5">
                <use fill="#DADADA" fill-rule="evenodd" xlink:href="#path-4"></use>
                <rect stroke="#313132" stroke-width="1" x="1.5" y="1.5" width="19" height="6" rx="2"></rect>
            </g>
        </g>
    </g>
</svg>